%TF.GenerationSoftware,KiCad,Pcbnew,7.0.7*%
%TF.CreationDate,2023-10-14T15:12:40+01:00*%
%TF.ProjectId,battery_protection,62617474-6572-4795-9f70-726f74656374,rev?*%
%TF.SameCoordinates,Original*%
%TF.FileFunction,Copper,L1,Top*%
%TF.FilePolarity,Positive*%
%FSLAX46Y46*%
G04 Gerber Fmt 4.6, Leading zero omitted, Abs format (unit mm)*
G04 Created by KiCad (PCBNEW 7.0.7) date 2023-10-14 15:12:40*
%MOMM*%
%LPD*%
G01*
G04 APERTURE LIST*
G04 Aperture macros list*
%AMRoundRect*
0 Rectangle with rounded corners*
0 $1 Rounding radius*
0 $2 $3 $4 $5 $6 $7 $8 $9 X,Y pos of 4 corners*
0 Add a 4 corners polygon primitive as box body*
4,1,4,$2,$3,$4,$5,$6,$7,$8,$9,$2,$3,0*
0 Add four circle primitives for the rounded corners*
1,1,$1+$1,$2,$3*
1,1,$1+$1,$4,$5*
1,1,$1+$1,$6,$7*
1,1,$1+$1,$8,$9*
0 Add four rect primitives between the rounded corners*
20,1,$1+$1,$2,$3,$4,$5,0*
20,1,$1+$1,$4,$5,$6,$7,0*
20,1,$1+$1,$6,$7,$8,$9,0*
20,1,$1+$1,$8,$9,$2,$3,0*%
G04 Aperture macros list end*
%TA.AperFunction,ComponentPad*%
%ADD10R,1.500000X1.500000*%
%TD*%
%TA.AperFunction,SMDPad,CuDef*%
%ADD11RoundRect,0.160000X-0.160000X0.197500X-0.160000X-0.197500X0.160000X-0.197500X0.160000X0.197500X0*%
%TD*%
%TA.AperFunction,SMDPad,CuDef*%
%ADD12RoundRect,0.155000X-0.155000X0.212500X-0.155000X-0.212500X0.155000X-0.212500X0.155000X0.212500X0*%
%TD*%
%TA.AperFunction,SMDPad,CuDef*%
%ADD13R,0.400000X1.560000*%
%TD*%
%TA.AperFunction,SMDPad,CuDef*%
%ADD14RoundRect,0.160000X0.197500X0.160000X-0.197500X0.160000X-0.197500X-0.160000X0.197500X-0.160000X0*%
%TD*%
%TA.AperFunction,SMDPad,CuDef*%
%ADD15R,0.650000X1.560000*%
%TD*%
%TA.AperFunction,ViaPad*%
%ADD16C,0.800000*%
%TD*%
%TA.AperFunction,Conductor*%
%ADD17C,0.200000*%
%TD*%
%TA.AperFunction,Conductor*%
%ADD18C,0.250000*%
%TD*%
G04 APERTURE END LIST*
D10*
%TO.P,J5,1,Pin_1*%
%TO.N,/OUTGND*%
X146160000Y-103070000D03*
%TD*%
D11*
%TO.P,R5,1*%
%TO.N,BAT+*%
X148130000Y-85330000D03*
%TO.P,R5,2*%
%TO.N,Net-(U2-VCC)*%
X148130000Y-86525000D03*
%TD*%
D10*
%TO.P,J4,1,Pin_1*%
%TO.N,BAT-*%
X148700000Y-103080000D03*
%TD*%
D12*
%TO.P,C2,1*%
%TO.N,Net-(U2-VCC)*%
X146920000Y-85355000D03*
%TO.P,C2,2*%
%TO.N,BAT-*%
X146920000Y-86490000D03*
%TD*%
D13*
%TO.P,U4,1,D*%
%TO.N,unconnected-(U4-D-Pad1)*%
X148410000Y-94213000D03*
%TO.P,U4,2,S*%
%TO.N,BAT-*%
X147760000Y-94213000D03*
%TO.P,U4,3,S*%
X147100000Y-94213000D03*
%TO.P,U4,4,G*%
%TO.N,/G1*%
X146450000Y-94213000D03*
%TO.P,U4,5,G*%
%TO.N,Net-(U2-OC)*%
X146450000Y-99627000D03*
%TO.P,U4,6,S*%
%TO.N,/OUTGND*%
X147100000Y-99627000D03*
%TO.P,U4,7,S*%
X147760000Y-99627000D03*
%TO.P,U4,8,D*%
%TO.N,unconnected-(U4-D-Pad8)*%
X148410000Y-99627000D03*
%TD*%
D10*
%TO.P,J7,1,Pin_1*%
%TO.N,BAT+*%
X148700000Y-83460000D03*
%TD*%
D14*
%TO.P,R6,1*%
%TO.N,/OC*%
X148027500Y-101330000D03*
%TO.P,R6,2*%
%TO.N,/OUTGND*%
X146832500Y-101330000D03*
%TD*%
D10*
%TO.P,J6,1,Pin_1*%
%TO.N,BAT+*%
X146160000Y-83449840D03*
%TD*%
D15*
%TO.P,U2,1,OD*%
%TO.N,/G1*%
X146560000Y-91360000D03*
%TO.P,U2,2,CS*%
%TO.N,/OC*%
X147510000Y-91360000D03*
%TO.P,U2,3,OC*%
%TO.N,Net-(U2-OC)*%
X148460000Y-91360000D03*
%TO.P,U2,4,TD*%
%TO.N,unconnected-(U2-TD-Pad4)*%
X148460000Y-88660000D03*
%TO.P,U2,5,VCC*%
%TO.N,Net-(U2-VCC)*%
X147510000Y-88660000D03*
%TO.P,U2,6,GND*%
%TO.N,BAT-*%
X146560000Y-88660000D03*
%TD*%
D16*
%TO.N,Net-(U2-OC)*%
X149340000Y-92700000D03*
X148230000Y-96850000D03*
%TO.N,BAT-*%
X145830000Y-97070000D03*
%TO.N,/OC*%
X149010000Y-101100000D03*
X147143886Y-90039278D03*
%TD*%
D17*
%TO.N,BAT+*%
X148689840Y-83449840D02*
X148700000Y-83460000D01*
X146160000Y-83449840D02*
X148689840Y-83449840D01*
X147638020Y-84838020D02*
X148130000Y-85330000D01*
X148700000Y-83460000D02*
X147638020Y-84521980D01*
X147638020Y-84521980D02*
X147638020Y-84838020D01*
D18*
%TO.N,Net-(U2-VCC)*%
X146960000Y-85355000D02*
X148130000Y-86525000D01*
X146920000Y-85355000D02*
X146960000Y-85355000D01*
X147510000Y-87145000D02*
X148130000Y-86525000D01*
X147510000Y-88660000D02*
X147510000Y-87145000D01*
%TO.N,/OUTGND*%
X147100000Y-99627000D02*
X147100000Y-101062500D01*
X146832500Y-101330000D02*
X146832500Y-102397500D01*
X146832500Y-102397500D02*
X146160000Y-103070000D01*
X147760000Y-99627000D02*
X147760000Y-100402500D01*
X147760000Y-100402500D02*
X146832500Y-101330000D01*
X147100000Y-101062500D02*
X146832500Y-101330000D01*
%TO.N,Net-(U2-OC)*%
X146450000Y-99627000D02*
X146450000Y-98630000D01*
X149340000Y-92240000D02*
X148460000Y-91360000D01*
X146450000Y-98630000D02*
X148230000Y-96850000D01*
X149340000Y-92700000D02*
X149340000Y-92240000D01*
D17*
%TO.N,BAT-*%
X145859500Y-95199500D02*
X146290000Y-95630000D01*
X145830000Y-96090000D02*
X146290000Y-95630000D01*
X147760000Y-94790000D02*
X147100000Y-95450000D01*
X146560000Y-88660000D02*
X146560000Y-86850000D01*
X147760000Y-94213000D02*
X147760000Y-94790000D01*
X145859500Y-89360500D02*
X145859500Y-95199500D01*
X146560000Y-88660000D02*
X145859500Y-89360500D01*
X145830000Y-97070000D02*
X145830000Y-96090000D01*
X147100000Y-95450000D02*
X146920000Y-95630000D01*
X146560000Y-86850000D02*
X146920000Y-86490000D01*
X146290000Y-95630000D02*
X146920000Y-95630000D01*
X147100000Y-94213000D02*
X147100000Y-95450000D01*
D18*
%TO.N,/OC*%
X147510000Y-90410000D02*
X147510000Y-91360000D01*
X148027500Y-101330000D02*
X148780000Y-101330000D01*
X148780000Y-101330000D02*
X149010000Y-101100000D01*
X147143886Y-90043886D02*
X147510000Y-90410000D01*
X147143886Y-90039278D02*
X147143886Y-90043886D01*
X147143886Y-90039278D02*
X147143886Y-90255000D01*
%TO.N,/G1*%
X146560000Y-94103000D02*
X146450000Y-94213000D01*
X146560000Y-91360000D02*
X146560000Y-94103000D01*
%TD*%
M02*
