%TF.GenerationSoftware,KiCad,Pcbnew,7.0.7*%
%TF.CreationDate,2023-10-14T15:12:40+01:00*%
%TF.ProjectId,battery_protection,62617474-6572-4795-9f70-726f74656374,rev?*%
%TF.SameCoordinates,Original*%
%TF.FileFunction,Legend,Bot*%
%TF.FilePolarity,Positive*%
%FSLAX46Y46*%
G04 Gerber Fmt 4.6, Leading zero omitted, Abs format (unit mm)*
G04 Created by KiCad (PCBNEW 7.0.7) date 2023-10-14 15:12:40*
%MOMM*%
%LPD*%
G01*
G04 APERTURE LIST*
%ADD10C,0.150000*%
G04 APERTURE END LIST*
D10*
X149030414Y-89514398D02*
X149030414Y-89157255D01*
X149030414Y-89157255D02*
X148280414Y-89157255D01*
X149030414Y-89764398D02*
X148530414Y-89764398D01*
X148280414Y-89764398D02*
X148316128Y-89728684D01*
X148316128Y-89728684D02*
X148351842Y-89764398D01*
X148351842Y-89764398D02*
X148316128Y-89800112D01*
X148316128Y-89800112D02*
X148280414Y-89764398D01*
X148280414Y-89764398D02*
X148351842Y-89764398D01*
X148530414Y-90121541D02*
X149280414Y-90121541D01*
X148566128Y-90121541D02*
X148530414Y-90192970D01*
X148530414Y-90192970D02*
X148530414Y-90335827D01*
X148530414Y-90335827D02*
X148566128Y-90407255D01*
X148566128Y-90407255D02*
X148601842Y-90442970D01*
X148601842Y-90442970D02*
X148673271Y-90478684D01*
X148673271Y-90478684D02*
X148887557Y-90478684D01*
X148887557Y-90478684D02*
X148958985Y-90442970D01*
X148958985Y-90442970D02*
X148994700Y-90407255D01*
X148994700Y-90407255D02*
X149030414Y-90335827D01*
X149030414Y-90335827D02*
X149030414Y-90192970D01*
X149030414Y-90192970D02*
X148994700Y-90121541D01*
X149030414Y-90907255D02*
X148994700Y-90835826D01*
X148994700Y-90835826D02*
X148958985Y-90800112D01*
X148958985Y-90800112D02*
X148887557Y-90764398D01*
X148887557Y-90764398D02*
X148673271Y-90764398D01*
X148673271Y-90764398D02*
X148601842Y-90800112D01*
X148601842Y-90800112D02*
X148566128Y-90835826D01*
X148566128Y-90835826D02*
X148530414Y-90907255D01*
X148530414Y-90907255D02*
X148530414Y-91014398D01*
X148530414Y-91014398D02*
X148566128Y-91085826D01*
X148566128Y-91085826D02*
X148601842Y-91121541D01*
X148601842Y-91121541D02*
X148673271Y-91157255D01*
X148673271Y-91157255D02*
X148887557Y-91157255D01*
X148887557Y-91157255D02*
X148958985Y-91121541D01*
X148958985Y-91121541D02*
X148994700Y-91085826D01*
X148994700Y-91085826D02*
X149030414Y-91014398D01*
X149030414Y-91014398D02*
X149030414Y-90907255D01*
X148530414Y-92050112D02*
X149280414Y-92050112D01*
X148566128Y-92050112D02*
X148530414Y-92121541D01*
X148530414Y-92121541D02*
X148530414Y-92264398D01*
X148530414Y-92264398D02*
X148566128Y-92335826D01*
X148566128Y-92335826D02*
X148601842Y-92371541D01*
X148601842Y-92371541D02*
X148673271Y-92407255D01*
X148673271Y-92407255D02*
X148887557Y-92407255D01*
X148887557Y-92407255D02*
X148958985Y-92371541D01*
X148958985Y-92371541D02*
X148994700Y-92335826D01*
X148994700Y-92335826D02*
X149030414Y-92264398D01*
X149030414Y-92264398D02*
X149030414Y-92121541D01*
X149030414Y-92121541D02*
X148994700Y-92050112D01*
X149030414Y-92728683D02*
X148530414Y-92728683D01*
X148673271Y-92728683D02*
X148601842Y-92764397D01*
X148601842Y-92764397D02*
X148566128Y-92800112D01*
X148566128Y-92800112D02*
X148530414Y-92871540D01*
X148530414Y-92871540D02*
X148530414Y-92942969D01*
X149030414Y-93300112D02*
X148994700Y-93228683D01*
X148994700Y-93228683D02*
X148958985Y-93192969D01*
X148958985Y-93192969D02*
X148887557Y-93157255D01*
X148887557Y-93157255D02*
X148673271Y-93157255D01*
X148673271Y-93157255D02*
X148601842Y-93192969D01*
X148601842Y-93192969D02*
X148566128Y-93228683D01*
X148566128Y-93228683D02*
X148530414Y-93300112D01*
X148530414Y-93300112D02*
X148530414Y-93407255D01*
X148530414Y-93407255D02*
X148566128Y-93478683D01*
X148566128Y-93478683D02*
X148601842Y-93514398D01*
X148601842Y-93514398D02*
X148673271Y-93550112D01*
X148673271Y-93550112D02*
X148887557Y-93550112D01*
X148887557Y-93550112D02*
X148958985Y-93514398D01*
X148958985Y-93514398D02*
X148994700Y-93478683D01*
X148994700Y-93478683D02*
X149030414Y-93407255D01*
X149030414Y-93407255D02*
X149030414Y-93300112D01*
X148530414Y-93764397D02*
X148530414Y-94050111D01*
X148280414Y-93871540D02*
X148923271Y-93871540D01*
X148923271Y-93871540D02*
X148994700Y-93907254D01*
X148994700Y-93907254D02*
X149030414Y-93978683D01*
X149030414Y-93978683D02*
X149030414Y-94050111D01*
X148994700Y-94585825D02*
X149030414Y-94514397D01*
X149030414Y-94514397D02*
X149030414Y-94371540D01*
X149030414Y-94371540D02*
X148994700Y-94300111D01*
X148994700Y-94300111D02*
X148923271Y-94264397D01*
X148923271Y-94264397D02*
X148637557Y-94264397D01*
X148637557Y-94264397D02*
X148566128Y-94300111D01*
X148566128Y-94300111D02*
X148530414Y-94371540D01*
X148530414Y-94371540D02*
X148530414Y-94514397D01*
X148530414Y-94514397D02*
X148566128Y-94585825D01*
X148566128Y-94585825D02*
X148637557Y-94621540D01*
X148637557Y-94621540D02*
X148708985Y-94621540D01*
X148708985Y-94621540D02*
X148780414Y-94264397D01*
X148994700Y-95264397D02*
X149030414Y-95192968D01*
X149030414Y-95192968D02*
X149030414Y-95050111D01*
X149030414Y-95050111D02*
X148994700Y-94978682D01*
X148994700Y-94978682D02*
X148958985Y-94942968D01*
X148958985Y-94942968D02*
X148887557Y-94907254D01*
X148887557Y-94907254D02*
X148673271Y-94907254D01*
X148673271Y-94907254D02*
X148601842Y-94942968D01*
X148601842Y-94942968D02*
X148566128Y-94978682D01*
X148566128Y-94978682D02*
X148530414Y-95050111D01*
X148530414Y-95050111D02*
X148530414Y-95192968D01*
X148530414Y-95192968D02*
X148566128Y-95264397D01*
X148530414Y-95478682D02*
X148530414Y-95764396D01*
X148280414Y-95585825D02*
X148923271Y-95585825D01*
X148923271Y-95585825D02*
X148994700Y-95621539D01*
X148994700Y-95621539D02*
X149030414Y-95692968D01*
X149030414Y-95692968D02*
X149030414Y-95764396D01*
X147447557Y-87897255D02*
X147447557Y-87647255D01*
X147840414Y-87647255D02*
X147090414Y-87647255D01*
X147090414Y-87647255D02*
X147090414Y-88004398D01*
X147840414Y-88611541D02*
X147447557Y-88611541D01*
X147447557Y-88611541D02*
X147376128Y-88575826D01*
X147376128Y-88575826D02*
X147340414Y-88504398D01*
X147340414Y-88504398D02*
X147340414Y-88361541D01*
X147340414Y-88361541D02*
X147376128Y-88290112D01*
X147804700Y-88611541D02*
X147840414Y-88540112D01*
X147840414Y-88540112D02*
X147840414Y-88361541D01*
X147840414Y-88361541D02*
X147804700Y-88290112D01*
X147804700Y-88290112D02*
X147733271Y-88254398D01*
X147733271Y-88254398D02*
X147661842Y-88254398D01*
X147661842Y-88254398D02*
X147590414Y-88290112D01*
X147590414Y-88290112D02*
X147554700Y-88361541D01*
X147554700Y-88361541D02*
X147554700Y-88540112D01*
X147554700Y-88540112D02*
X147518985Y-88611541D01*
X147804700Y-89290112D02*
X147840414Y-89218683D01*
X147840414Y-89218683D02*
X147840414Y-89075826D01*
X147840414Y-89075826D02*
X147804700Y-89004397D01*
X147804700Y-89004397D02*
X147768985Y-88968683D01*
X147768985Y-88968683D02*
X147697557Y-88932969D01*
X147697557Y-88932969D02*
X147483271Y-88932969D01*
X147483271Y-88932969D02*
X147411842Y-88968683D01*
X147411842Y-88968683D02*
X147376128Y-89004397D01*
X147376128Y-89004397D02*
X147340414Y-89075826D01*
X147340414Y-89075826D02*
X147340414Y-89218683D01*
X147340414Y-89218683D02*
X147376128Y-89290112D01*
X147804700Y-89897254D02*
X147840414Y-89825826D01*
X147840414Y-89825826D02*
X147840414Y-89682969D01*
X147840414Y-89682969D02*
X147804700Y-89611540D01*
X147804700Y-89611540D02*
X147733271Y-89575826D01*
X147733271Y-89575826D02*
X147447557Y-89575826D01*
X147447557Y-89575826D02*
X147376128Y-89611540D01*
X147376128Y-89611540D02*
X147340414Y-89682969D01*
X147340414Y-89682969D02*
X147340414Y-89825826D01*
X147340414Y-89825826D02*
X147376128Y-89897254D01*
X147376128Y-89897254D02*
X147447557Y-89932969D01*
X147447557Y-89932969D02*
X147518985Y-89932969D01*
X147518985Y-89932969D02*
X147590414Y-89575826D01*
X147840414Y-90361540D02*
X147804700Y-90290111D01*
X147804700Y-90290111D02*
X147733271Y-90254397D01*
X147733271Y-90254397D02*
X147090414Y-90254397D01*
X147804700Y-90932968D02*
X147840414Y-90861540D01*
X147840414Y-90861540D02*
X147840414Y-90718683D01*
X147840414Y-90718683D02*
X147804700Y-90647254D01*
X147804700Y-90647254D02*
X147733271Y-90611540D01*
X147733271Y-90611540D02*
X147447557Y-90611540D01*
X147447557Y-90611540D02*
X147376128Y-90647254D01*
X147376128Y-90647254D02*
X147340414Y-90718683D01*
X147340414Y-90718683D02*
X147340414Y-90861540D01*
X147340414Y-90861540D02*
X147376128Y-90932968D01*
X147376128Y-90932968D02*
X147447557Y-90968683D01*
X147447557Y-90968683D02*
X147518985Y-90968683D01*
X147518985Y-90968683D02*
X147590414Y-90611540D01*
X147804700Y-91254397D02*
X147840414Y-91325825D01*
X147840414Y-91325825D02*
X147840414Y-91468682D01*
X147840414Y-91468682D02*
X147804700Y-91540111D01*
X147804700Y-91540111D02*
X147733271Y-91575825D01*
X147733271Y-91575825D02*
X147697557Y-91575825D01*
X147697557Y-91575825D02*
X147626128Y-91540111D01*
X147626128Y-91540111D02*
X147590414Y-91468682D01*
X147590414Y-91468682D02*
X147590414Y-91361540D01*
X147590414Y-91361540D02*
X147554700Y-91290111D01*
X147554700Y-91290111D02*
X147483271Y-91254397D01*
X147483271Y-91254397D02*
X147447557Y-91254397D01*
X147447557Y-91254397D02*
X147376128Y-91290111D01*
X147376128Y-91290111D02*
X147340414Y-91361540D01*
X147340414Y-91361540D02*
X147340414Y-91468682D01*
X147340414Y-91468682D02*
X147376128Y-91540111D01*
X147804700Y-91861540D02*
X147840414Y-91932968D01*
X147840414Y-91932968D02*
X147840414Y-92075825D01*
X147840414Y-92075825D02*
X147804700Y-92147254D01*
X147804700Y-92147254D02*
X147733271Y-92182968D01*
X147733271Y-92182968D02*
X147697557Y-92182968D01*
X147697557Y-92182968D02*
X147626128Y-92147254D01*
X147626128Y-92147254D02*
X147590414Y-92075825D01*
X147590414Y-92075825D02*
X147590414Y-91968683D01*
X147590414Y-91968683D02*
X147554700Y-91897254D01*
X147554700Y-91897254D02*
X147483271Y-91861540D01*
X147483271Y-91861540D02*
X147447557Y-91861540D01*
X147447557Y-91861540D02*
X147376128Y-91897254D01*
X147376128Y-91897254D02*
X147340414Y-91968683D01*
X147340414Y-91968683D02*
X147340414Y-92075825D01*
X147340414Y-92075825D02*
X147376128Y-92147254D01*
X147340414Y-92397254D02*
X147340414Y-92682968D01*
X147090414Y-92504397D02*
X147733271Y-92504397D01*
X147733271Y-92504397D02*
X147804700Y-92540111D01*
X147804700Y-92540111D02*
X147840414Y-92611540D01*
X147840414Y-92611540D02*
X147840414Y-92682968D01*
X147804700Y-93218682D02*
X147840414Y-93147254D01*
X147840414Y-93147254D02*
X147840414Y-93004397D01*
X147840414Y-93004397D02*
X147804700Y-92932968D01*
X147804700Y-92932968D02*
X147733271Y-92897254D01*
X147733271Y-92897254D02*
X147447557Y-92897254D01*
X147447557Y-92897254D02*
X147376128Y-92932968D01*
X147376128Y-92932968D02*
X147340414Y-93004397D01*
X147340414Y-93004397D02*
X147340414Y-93147254D01*
X147340414Y-93147254D02*
X147376128Y-93218682D01*
X147376128Y-93218682D02*
X147447557Y-93254397D01*
X147447557Y-93254397D02*
X147518985Y-93254397D01*
X147518985Y-93254397D02*
X147590414Y-92897254D01*
X147804700Y-93897254D02*
X147840414Y-93825825D01*
X147840414Y-93825825D02*
X147840414Y-93682968D01*
X147840414Y-93682968D02*
X147804700Y-93611539D01*
X147804700Y-93611539D02*
X147768985Y-93575825D01*
X147768985Y-93575825D02*
X147697557Y-93540111D01*
X147697557Y-93540111D02*
X147483271Y-93540111D01*
X147483271Y-93540111D02*
X147411842Y-93575825D01*
X147411842Y-93575825D02*
X147376128Y-93611539D01*
X147376128Y-93611539D02*
X147340414Y-93682968D01*
X147340414Y-93682968D02*
X147340414Y-93825825D01*
X147340414Y-93825825D02*
X147376128Y-93897254D01*
X147840414Y-94218682D02*
X147090414Y-94218682D01*
X147840414Y-94540111D02*
X147447557Y-94540111D01*
X147447557Y-94540111D02*
X147376128Y-94504396D01*
X147376128Y-94504396D02*
X147340414Y-94432968D01*
X147340414Y-94432968D02*
X147340414Y-94325825D01*
X147340414Y-94325825D02*
X147376128Y-94254396D01*
X147376128Y-94254396D02*
X147411842Y-94218682D01*
X147161842Y-95432968D02*
X147126128Y-95468682D01*
X147126128Y-95468682D02*
X147090414Y-95540111D01*
X147090414Y-95540111D02*
X147090414Y-95718682D01*
X147090414Y-95718682D02*
X147126128Y-95790111D01*
X147126128Y-95790111D02*
X147161842Y-95825825D01*
X147161842Y-95825825D02*
X147233271Y-95861539D01*
X147233271Y-95861539D02*
X147304700Y-95861539D01*
X147304700Y-95861539D02*
X147411842Y-95825825D01*
X147411842Y-95825825D02*
X147840414Y-95397253D01*
X147840414Y-95397253D02*
X147840414Y-95861539D01*
X147090414Y-96325825D02*
X147090414Y-96397254D01*
X147090414Y-96397254D02*
X147126128Y-96468682D01*
X147126128Y-96468682D02*
X147161842Y-96504397D01*
X147161842Y-96504397D02*
X147233271Y-96540111D01*
X147233271Y-96540111D02*
X147376128Y-96575825D01*
X147376128Y-96575825D02*
X147554700Y-96575825D01*
X147554700Y-96575825D02*
X147697557Y-96540111D01*
X147697557Y-96540111D02*
X147768985Y-96504397D01*
X147768985Y-96504397D02*
X147804700Y-96468682D01*
X147804700Y-96468682D02*
X147840414Y-96397254D01*
X147840414Y-96397254D02*
X147840414Y-96325825D01*
X147840414Y-96325825D02*
X147804700Y-96254397D01*
X147804700Y-96254397D02*
X147768985Y-96218682D01*
X147768985Y-96218682D02*
X147697557Y-96182968D01*
X147697557Y-96182968D02*
X147554700Y-96147254D01*
X147554700Y-96147254D02*
X147376128Y-96147254D01*
X147376128Y-96147254D02*
X147233271Y-96182968D01*
X147233271Y-96182968D02*
X147161842Y-96218682D01*
X147161842Y-96218682D02*
X147126128Y-96254397D01*
X147126128Y-96254397D02*
X147090414Y-96325825D01*
X147161842Y-96861540D02*
X147126128Y-96897254D01*
X147126128Y-96897254D02*
X147090414Y-96968683D01*
X147090414Y-96968683D02*
X147090414Y-97147254D01*
X147090414Y-97147254D02*
X147126128Y-97218683D01*
X147126128Y-97218683D02*
X147161842Y-97254397D01*
X147161842Y-97254397D02*
X147233271Y-97290111D01*
X147233271Y-97290111D02*
X147304700Y-97290111D01*
X147304700Y-97290111D02*
X147411842Y-97254397D01*
X147411842Y-97254397D02*
X147840414Y-96825825D01*
X147840414Y-96825825D02*
X147840414Y-97290111D01*
X147090414Y-97540111D02*
X147090414Y-98004397D01*
X147090414Y-98004397D02*
X147376128Y-97754397D01*
X147376128Y-97754397D02*
X147376128Y-97861540D01*
X147376128Y-97861540D02*
X147411842Y-97932969D01*
X147411842Y-97932969D02*
X147447557Y-97968683D01*
X147447557Y-97968683D02*
X147518985Y-98004397D01*
X147518985Y-98004397D02*
X147697557Y-98004397D01*
X147697557Y-98004397D02*
X147768985Y-97968683D01*
X147768985Y-97968683D02*
X147804700Y-97932969D01*
X147804700Y-97932969D02*
X147840414Y-97861540D01*
X147840414Y-97861540D02*
X147840414Y-97647254D01*
X147840414Y-97647254D02*
X147804700Y-97575826D01*
X147804700Y-97575826D02*
X147768985Y-97540111D01*
X145689819Y-85347255D02*
X145689819Y-85537731D01*
X145689819Y-85537731D02*
X145737438Y-85632969D01*
X145737438Y-85632969D02*
X145832676Y-85728207D01*
X145832676Y-85728207D02*
X146023152Y-85775826D01*
X146023152Y-85775826D02*
X146356485Y-85775826D01*
X146356485Y-85775826D02*
X146546961Y-85728207D01*
X146546961Y-85728207D02*
X146642200Y-85632969D01*
X146642200Y-85632969D02*
X146689819Y-85537731D01*
X146689819Y-85537731D02*
X146689819Y-85347255D01*
X146689819Y-85347255D02*
X146642200Y-85252017D01*
X146642200Y-85252017D02*
X146546961Y-85156779D01*
X146546961Y-85156779D02*
X146356485Y-85109160D01*
X146356485Y-85109160D02*
X146023152Y-85109160D01*
X146023152Y-85109160D02*
X145832676Y-85156779D01*
X145832676Y-85156779D02*
X145737438Y-85252017D01*
X145737438Y-85252017D02*
X145689819Y-85347255D01*
X145689819Y-86204398D02*
X146499342Y-86204398D01*
X146499342Y-86204398D02*
X146594580Y-86252017D01*
X146594580Y-86252017D02*
X146642200Y-86299636D01*
X146642200Y-86299636D02*
X146689819Y-86394874D01*
X146689819Y-86394874D02*
X146689819Y-86585350D01*
X146689819Y-86585350D02*
X146642200Y-86680588D01*
X146642200Y-86680588D02*
X146594580Y-86728207D01*
X146594580Y-86728207D02*
X146499342Y-86775826D01*
X146499342Y-86775826D02*
X145689819Y-86775826D01*
X145689819Y-87109160D02*
X145689819Y-87680588D01*
X146689819Y-87394874D02*
X145689819Y-87394874D01*
X146308866Y-88775827D02*
X146308866Y-89537732D01*
X146689819Y-89156779D02*
X145927914Y-89156779D01*
X145629819Y-97567255D02*
X145629819Y-97757731D01*
X145629819Y-97757731D02*
X145677438Y-97852969D01*
X145677438Y-97852969D02*
X145772676Y-97948207D01*
X145772676Y-97948207D02*
X145963152Y-97995826D01*
X145963152Y-97995826D02*
X146296485Y-97995826D01*
X146296485Y-97995826D02*
X146486961Y-97948207D01*
X146486961Y-97948207D02*
X146582200Y-97852969D01*
X146582200Y-97852969D02*
X146629819Y-97757731D01*
X146629819Y-97757731D02*
X146629819Y-97567255D01*
X146629819Y-97567255D02*
X146582200Y-97472017D01*
X146582200Y-97472017D02*
X146486961Y-97376779D01*
X146486961Y-97376779D02*
X146296485Y-97329160D01*
X146296485Y-97329160D02*
X145963152Y-97329160D01*
X145963152Y-97329160D02*
X145772676Y-97376779D01*
X145772676Y-97376779D02*
X145677438Y-97472017D01*
X145677438Y-97472017D02*
X145629819Y-97567255D01*
X145629819Y-98424398D02*
X146439342Y-98424398D01*
X146439342Y-98424398D02*
X146534580Y-98472017D01*
X146534580Y-98472017D02*
X146582200Y-98519636D01*
X146582200Y-98519636D02*
X146629819Y-98614874D01*
X146629819Y-98614874D02*
X146629819Y-98805350D01*
X146629819Y-98805350D02*
X146582200Y-98900588D01*
X146582200Y-98900588D02*
X146534580Y-98948207D01*
X146534580Y-98948207D02*
X146439342Y-98995826D01*
X146439342Y-98995826D02*
X145629819Y-98995826D01*
X145629819Y-99329160D02*
X145629819Y-99900588D01*
X146629819Y-99614874D02*
X145629819Y-99614874D01*
X146248866Y-100995827D02*
X146248866Y-101757732D01*
X149249819Y-85216779D02*
X148249819Y-85216779D01*
X149249819Y-85692969D02*
X148249819Y-85692969D01*
X148249819Y-85692969D02*
X149249819Y-86264397D01*
X149249819Y-86264397D02*
X148249819Y-86264397D01*
X148868866Y-87502493D02*
X148868866Y-88264398D01*
X149249819Y-87883445D02*
X148487914Y-87883445D01*
X149239819Y-98226779D02*
X148239819Y-98226779D01*
X149239819Y-98702969D02*
X148239819Y-98702969D01*
X148239819Y-98702969D02*
X149239819Y-99274397D01*
X149239819Y-99274397D02*
X148239819Y-99274397D01*
X148858866Y-100512493D02*
X148858866Y-101274398D01*
X148010118Y-100834819D02*
X147914880Y-100834819D01*
X147914880Y-100834819D02*
X147819642Y-100882438D01*
X147819642Y-100882438D02*
X147772023Y-100930057D01*
X147772023Y-100930057D02*
X147724404Y-101025295D01*
X147724404Y-101025295D02*
X147676785Y-101215771D01*
X147676785Y-101215771D02*
X147676785Y-101453866D01*
X147676785Y-101453866D02*
X147724404Y-101644342D01*
X147724404Y-101644342D02*
X147772023Y-101739580D01*
X147772023Y-101739580D02*
X147819642Y-101787200D01*
X147819642Y-101787200D02*
X147914880Y-101834819D01*
X147914880Y-101834819D02*
X148010118Y-101834819D01*
X148010118Y-101834819D02*
X148105356Y-101787200D01*
X148105356Y-101787200D02*
X148152975Y-101739580D01*
X148152975Y-101739580D02*
X148200594Y-101644342D01*
X148200594Y-101644342D02*
X148248213Y-101453866D01*
X148248213Y-101453866D02*
X148248213Y-101215771D01*
X148248213Y-101215771D02*
X148200594Y-101025295D01*
X148200594Y-101025295D02*
X148152975Y-100930057D01*
X148152975Y-100930057D02*
X148105356Y-100882438D01*
X148105356Y-100882438D02*
X148010118Y-100834819D01*
X146676785Y-101834819D02*
X147010118Y-101358628D01*
X147248213Y-101834819D02*
X147248213Y-100834819D01*
X147248213Y-100834819D02*
X146867261Y-100834819D01*
X146867261Y-100834819D02*
X146772023Y-100882438D01*
X146772023Y-100882438D02*
X146724404Y-100930057D01*
X146724404Y-100930057D02*
X146676785Y-101025295D01*
X146676785Y-101025295D02*
X146676785Y-101168152D01*
X146676785Y-101168152D02*
X146724404Y-101263390D01*
X146724404Y-101263390D02*
X146772023Y-101311009D01*
X146772023Y-101311009D02*
X146867261Y-101358628D01*
X146867261Y-101358628D02*
X147248213Y-101358628D01*
M02*
