%TF.GenerationSoftware,KiCad,Pcbnew,7.0.7*%
%TF.CreationDate,2023-09-27T10:33:14+01:00*%
%TF.ProjectId,tp4650+10a45,74703436-3530-42b3-9130-6134352e6b69,rev?*%
%TF.SameCoordinates,Original*%
%TF.FileFunction,Legend,Top*%
%TF.FilePolarity,Positive*%
%FSLAX46Y46*%
G04 Gerber Fmt 4.6, Leading zero omitted, Abs format (unit mm)*
G04 Created by KiCad (PCBNEW 7.0.7) date 2023-09-27 10:33:14*
%MOMM*%
%LPD*%
G01*
G04 APERTURE LIST*
%ADD10C,0.150000*%
%ADD11C,0.120000*%
G04 APERTURE END LIST*
D10*
X133324648Y-97228866D02*
X134086553Y-97228866D01*
X133705600Y-97609819D02*
X133705600Y-96847914D01*
X134935981Y-95358809D02*
X135078838Y-95406428D01*
X135078838Y-95406428D02*
X135126457Y-95454047D01*
X135126457Y-95454047D02*
X135174076Y-95549285D01*
X135174076Y-95549285D02*
X135174076Y-95692142D01*
X135174076Y-95692142D02*
X135126457Y-95787380D01*
X135126457Y-95787380D02*
X135078838Y-95835000D01*
X135078838Y-95835000D02*
X134983600Y-95882619D01*
X134983600Y-95882619D02*
X134602648Y-95882619D01*
X134602648Y-95882619D02*
X134602648Y-94882619D01*
X134602648Y-94882619D02*
X134935981Y-94882619D01*
X134935981Y-94882619D02*
X135031219Y-94930238D01*
X135031219Y-94930238D02*
X135078838Y-94977857D01*
X135078838Y-94977857D02*
X135126457Y-95073095D01*
X135126457Y-95073095D02*
X135126457Y-95168333D01*
X135126457Y-95168333D02*
X135078838Y-95263571D01*
X135078838Y-95263571D02*
X135031219Y-95311190D01*
X135031219Y-95311190D02*
X134935981Y-95358809D01*
X134935981Y-95358809D02*
X134602648Y-95358809D01*
X135602648Y-95501666D02*
X136364553Y-95501666D01*
X135983600Y-95882619D02*
X135983600Y-95120714D01*
X142290848Y-97228866D02*
X143052753Y-97228866D01*
X140752581Y-95485809D02*
X140895438Y-95533428D01*
X140895438Y-95533428D02*
X140943057Y-95581047D01*
X140943057Y-95581047D02*
X140990676Y-95676285D01*
X140990676Y-95676285D02*
X140990676Y-95819142D01*
X140990676Y-95819142D02*
X140943057Y-95914380D01*
X140943057Y-95914380D02*
X140895438Y-95962000D01*
X140895438Y-95962000D02*
X140800200Y-96009619D01*
X140800200Y-96009619D02*
X140419248Y-96009619D01*
X140419248Y-96009619D02*
X140419248Y-95009619D01*
X140419248Y-95009619D02*
X140752581Y-95009619D01*
X140752581Y-95009619D02*
X140847819Y-95057238D01*
X140847819Y-95057238D02*
X140895438Y-95104857D01*
X140895438Y-95104857D02*
X140943057Y-95200095D01*
X140943057Y-95200095D02*
X140943057Y-95295333D01*
X140943057Y-95295333D02*
X140895438Y-95390571D01*
X140895438Y-95390571D02*
X140847819Y-95438190D01*
X140847819Y-95438190D02*
X140752581Y-95485809D01*
X140752581Y-95485809D02*
X140419248Y-95485809D01*
X141419248Y-95628666D02*
X142181153Y-95628666D01*
X131874419Y-79617866D02*
X131398228Y-79951199D01*
X131874419Y-80189294D02*
X130874419Y-80189294D01*
X130874419Y-80189294D02*
X130874419Y-79808342D01*
X130874419Y-79808342D02*
X130922038Y-79713104D01*
X130922038Y-79713104D02*
X130969657Y-79665485D01*
X130969657Y-79665485D02*
X131064895Y-79617866D01*
X131064895Y-79617866D02*
X131207752Y-79617866D01*
X131207752Y-79617866D02*
X131302990Y-79665485D01*
X131302990Y-79665485D02*
X131350609Y-79713104D01*
X131350609Y-79713104D02*
X131398228Y-79808342D01*
X131398228Y-79808342D02*
X131398228Y-80189294D01*
X130874419Y-79284532D02*
X130874419Y-78617866D01*
X130874419Y-78617866D02*
X131874419Y-79046437D01*
X142669580Y-83458666D02*
X142717200Y-83506285D01*
X142717200Y-83506285D02*
X142764819Y-83649142D01*
X142764819Y-83649142D02*
X142764819Y-83744380D01*
X142764819Y-83744380D02*
X142717200Y-83887237D01*
X142717200Y-83887237D02*
X142621961Y-83982475D01*
X142621961Y-83982475D02*
X142526723Y-84030094D01*
X142526723Y-84030094D02*
X142336247Y-84077713D01*
X142336247Y-84077713D02*
X142193390Y-84077713D01*
X142193390Y-84077713D02*
X142002914Y-84030094D01*
X142002914Y-84030094D02*
X141907676Y-83982475D01*
X141907676Y-83982475D02*
X141812438Y-83887237D01*
X141812438Y-83887237D02*
X141764819Y-83744380D01*
X141764819Y-83744380D02*
X141764819Y-83649142D01*
X141764819Y-83649142D02*
X141812438Y-83506285D01*
X141812438Y-83506285D02*
X141860057Y-83458666D01*
X141764819Y-83125332D02*
X141764819Y-82506285D01*
X141764819Y-82506285D02*
X142145771Y-82839618D01*
X142145771Y-82839618D02*
X142145771Y-82696761D01*
X142145771Y-82696761D02*
X142193390Y-82601523D01*
X142193390Y-82601523D02*
X142241009Y-82553904D01*
X142241009Y-82553904D02*
X142336247Y-82506285D01*
X142336247Y-82506285D02*
X142574342Y-82506285D01*
X142574342Y-82506285D02*
X142669580Y-82553904D01*
X142669580Y-82553904D02*
X142717200Y-82601523D01*
X142717200Y-82601523D02*
X142764819Y-82696761D01*
X142764819Y-82696761D02*
X142764819Y-82982475D01*
X142764819Y-82982475D02*
X142717200Y-83077713D01*
X142717200Y-83077713D02*
X142669580Y-83125332D01*
X131216780Y-87462566D02*
X131264400Y-87510185D01*
X131264400Y-87510185D02*
X131312019Y-87653042D01*
X131312019Y-87653042D02*
X131312019Y-87748280D01*
X131312019Y-87748280D02*
X131264400Y-87891137D01*
X131264400Y-87891137D02*
X131169161Y-87986375D01*
X131169161Y-87986375D02*
X131073923Y-88033994D01*
X131073923Y-88033994D02*
X130883447Y-88081613D01*
X130883447Y-88081613D02*
X130740590Y-88081613D01*
X130740590Y-88081613D02*
X130550114Y-88033994D01*
X130550114Y-88033994D02*
X130454876Y-87986375D01*
X130454876Y-87986375D02*
X130359638Y-87891137D01*
X130359638Y-87891137D02*
X130312019Y-87748280D01*
X130312019Y-87748280D02*
X130312019Y-87653042D01*
X130312019Y-87653042D02*
X130359638Y-87510185D01*
X130359638Y-87510185D02*
X130407257Y-87462566D01*
X131312019Y-86510185D02*
X131312019Y-87081613D01*
X131312019Y-86795899D02*
X130312019Y-86795899D01*
X130312019Y-86795899D02*
X130454876Y-86891137D01*
X130454876Y-86891137D02*
X130550114Y-86986375D01*
X130550114Y-86986375D02*
X130597733Y-87081613D01*
X145775219Y-79861066D02*
X145299028Y-80194399D01*
X145775219Y-80432494D02*
X144775219Y-80432494D01*
X144775219Y-80432494D02*
X144775219Y-80051542D01*
X144775219Y-80051542D02*
X144822838Y-79956304D01*
X144822838Y-79956304D02*
X144870457Y-79908685D01*
X144870457Y-79908685D02*
X144965695Y-79861066D01*
X144965695Y-79861066D02*
X145108552Y-79861066D01*
X145108552Y-79861066D02*
X145203790Y-79908685D01*
X145203790Y-79908685D02*
X145251409Y-79956304D01*
X145251409Y-79956304D02*
X145299028Y-80051542D01*
X145299028Y-80051542D02*
X145299028Y-80432494D01*
X145775219Y-79384875D02*
X145775219Y-79194399D01*
X145775219Y-79194399D02*
X145727600Y-79099161D01*
X145727600Y-79099161D02*
X145679980Y-79051542D01*
X145679980Y-79051542D02*
X145537123Y-78956304D01*
X145537123Y-78956304D02*
X145346647Y-78908685D01*
X145346647Y-78908685D02*
X144965695Y-78908685D01*
X144965695Y-78908685D02*
X144870457Y-78956304D01*
X144870457Y-78956304D02*
X144822838Y-79003923D01*
X144822838Y-79003923D02*
X144775219Y-79099161D01*
X144775219Y-79099161D02*
X144775219Y-79289637D01*
X144775219Y-79289637D02*
X144822838Y-79384875D01*
X144822838Y-79384875D02*
X144870457Y-79432494D01*
X144870457Y-79432494D02*
X144965695Y-79480113D01*
X144965695Y-79480113D02*
X145203790Y-79480113D01*
X145203790Y-79480113D02*
X145299028Y-79432494D01*
X145299028Y-79432494D02*
X145346647Y-79384875D01*
X145346647Y-79384875D02*
X145394266Y-79289637D01*
X145394266Y-79289637D02*
X145394266Y-79099161D01*
X145394266Y-79099161D02*
X145346647Y-79003923D01*
X145346647Y-79003923D02*
X145299028Y-78956304D01*
X145299028Y-78956304D02*
X145203790Y-78908685D01*
X144482019Y-82437366D02*
X144005828Y-82770699D01*
X144482019Y-83008794D02*
X143482019Y-83008794D01*
X143482019Y-83008794D02*
X143482019Y-82627842D01*
X143482019Y-82627842D02*
X143529638Y-82532604D01*
X143529638Y-82532604D02*
X143577257Y-82484985D01*
X143577257Y-82484985D02*
X143672495Y-82437366D01*
X143672495Y-82437366D02*
X143815352Y-82437366D01*
X143815352Y-82437366D02*
X143910590Y-82484985D01*
X143910590Y-82484985D02*
X143958209Y-82532604D01*
X143958209Y-82532604D02*
X144005828Y-82627842D01*
X144005828Y-82627842D02*
X144005828Y-83008794D01*
X144482019Y-81484985D02*
X144482019Y-82056413D01*
X144482019Y-81770699D02*
X143482019Y-81770699D01*
X143482019Y-81770699D02*
X143624876Y-81865937D01*
X143624876Y-81865937D02*
X143720114Y-81961175D01*
X143720114Y-81961175D02*
X143767733Y-82056413D01*
X136383733Y-82649219D02*
X136050400Y-82173028D01*
X135812305Y-82649219D02*
X135812305Y-81649219D01*
X135812305Y-81649219D02*
X136193257Y-81649219D01*
X136193257Y-81649219D02*
X136288495Y-81696838D01*
X136288495Y-81696838D02*
X136336114Y-81744457D01*
X136336114Y-81744457D02*
X136383733Y-81839695D01*
X136383733Y-81839695D02*
X136383733Y-81982552D01*
X136383733Y-81982552D02*
X136336114Y-82077790D01*
X136336114Y-82077790D02*
X136288495Y-82125409D01*
X136288495Y-82125409D02*
X136193257Y-82173028D01*
X136193257Y-82173028D02*
X135812305Y-82173028D01*
X136955162Y-82077790D02*
X136859924Y-82030171D01*
X136859924Y-82030171D02*
X136812305Y-81982552D01*
X136812305Y-81982552D02*
X136764686Y-81887314D01*
X136764686Y-81887314D02*
X136764686Y-81839695D01*
X136764686Y-81839695D02*
X136812305Y-81744457D01*
X136812305Y-81744457D02*
X136859924Y-81696838D01*
X136859924Y-81696838D02*
X136955162Y-81649219D01*
X136955162Y-81649219D02*
X137145638Y-81649219D01*
X137145638Y-81649219D02*
X137240876Y-81696838D01*
X137240876Y-81696838D02*
X137288495Y-81744457D01*
X137288495Y-81744457D02*
X137336114Y-81839695D01*
X137336114Y-81839695D02*
X137336114Y-81887314D01*
X137336114Y-81887314D02*
X137288495Y-81982552D01*
X137288495Y-81982552D02*
X137240876Y-82030171D01*
X137240876Y-82030171D02*
X137145638Y-82077790D01*
X137145638Y-82077790D02*
X136955162Y-82077790D01*
X136955162Y-82077790D02*
X136859924Y-82125409D01*
X136859924Y-82125409D02*
X136812305Y-82173028D01*
X136812305Y-82173028D02*
X136764686Y-82268266D01*
X136764686Y-82268266D02*
X136764686Y-82458742D01*
X136764686Y-82458742D02*
X136812305Y-82553980D01*
X136812305Y-82553980D02*
X136859924Y-82601600D01*
X136859924Y-82601600D02*
X136955162Y-82649219D01*
X136955162Y-82649219D02*
X137145638Y-82649219D01*
X137145638Y-82649219D02*
X137240876Y-82601600D01*
X137240876Y-82601600D02*
X137288495Y-82553980D01*
X137288495Y-82553980D02*
X137336114Y-82458742D01*
X137336114Y-82458742D02*
X137336114Y-82268266D01*
X137336114Y-82268266D02*
X137288495Y-82173028D01*
X137288495Y-82173028D02*
X137240876Y-82125409D01*
X137240876Y-82125409D02*
X137145638Y-82077790D01*
X131405333Y-82344419D02*
X131072000Y-81868228D01*
X130833905Y-82344419D02*
X130833905Y-81344419D01*
X130833905Y-81344419D02*
X131214857Y-81344419D01*
X131214857Y-81344419D02*
X131310095Y-81392038D01*
X131310095Y-81392038D02*
X131357714Y-81439657D01*
X131357714Y-81439657D02*
X131405333Y-81534895D01*
X131405333Y-81534895D02*
X131405333Y-81677752D01*
X131405333Y-81677752D02*
X131357714Y-81772990D01*
X131357714Y-81772990D02*
X131310095Y-81820609D01*
X131310095Y-81820609D02*
X131214857Y-81868228D01*
X131214857Y-81868228D02*
X130833905Y-81868228D01*
X131738667Y-81344419D02*
X132357714Y-81344419D01*
X132357714Y-81344419D02*
X132024381Y-81725371D01*
X132024381Y-81725371D02*
X132167238Y-81725371D01*
X132167238Y-81725371D02*
X132262476Y-81772990D01*
X132262476Y-81772990D02*
X132310095Y-81820609D01*
X132310095Y-81820609D02*
X132357714Y-81915847D01*
X132357714Y-81915847D02*
X132357714Y-82153942D01*
X132357714Y-82153942D02*
X132310095Y-82249180D01*
X132310095Y-82249180D02*
X132262476Y-82296800D01*
X132262476Y-82296800D02*
X132167238Y-82344419D01*
X132167238Y-82344419D02*
X131881524Y-82344419D01*
X131881524Y-82344419D02*
X131786286Y-82296800D01*
X131786286Y-82296800D02*
X131738667Y-82249180D01*
D11*
%TO.C,C2*%
X144143000Y-92043467D02*
X144143000Y-91750933D01*
X145163000Y-92043467D02*
X145163000Y-91750933D01*
%TO.C,D1*%
X143820000Y-78364800D02*
X145740000Y-78364800D01*
X145740000Y-78364800D02*
X145740000Y-75504800D01*
X143820000Y-75504800D02*
X143820000Y-78364800D01*
%TO.C,R7*%
X130744700Y-77062424D02*
X130744700Y-76552976D01*
X131789700Y-77062424D02*
X131789700Y-76552976D01*
%TO.C,C3*%
X143870000Y-83196165D02*
X143870000Y-83427835D01*
X143150000Y-83196165D02*
X143150000Y-83427835D01*
%TO.C,C1*%
X133272200Y-87557152D02*
X133272200Y-87034648D01*
X131802200Y-87557152D02*
X131802200Y-87034648D01*
%TO.C,C4*%
X138259433Y-94333600D02*
X138551967Y-94333600D01*
X138259433Y-95353600D02*
X138551967Y-95353600D01*
%TO.C,P1*%
X133443600Y-74506800D02*
X133443600Y-73556800D01*
X133443600Y-78481800D02*
X133443600Y-77626800D01*
X142603600Y-73556800D02*
X133443600Y-73556800D01*
X142603600Y-74506800D02*
X142603600Y-73556800D01*
X142603600Y-78481800D02*
X142603600Y-77626800D01*
%TO.C,U2*%
X138023600Y-89529600D02*
X139973600Y-89529600D01*
X138023600Y-89529600D02*
X136073600Y-89529600D01*
X138023600Y-84409600D02*
X139973600Y-84409600D01*
X138023600Y-84409600D02*
X134573600Y-84409600D01*
D10*
%TO.C,SW1*%
X132879800Y-95104800D02*
X130079800Y-95104800D01*
X128679800Y-93804800D02*
X129999750Y-93804800D01*
X128679800Y-92559450D02*
X128679800Y-91251350D01*
X128679800Y-92554800D02*
X129999750Y-92554800D01*
X128679800Y-92500750D02*
X128679800Y-93808850D01*
X128729800Y-91251350D02*
X130049750Y-91251350D01*
X132879800Y-90154800D02*
X132879800Y-95054800D01*
X130079800Y-90104800D02*
X130079800Y-95104800D01*
X132879800Y-90104800D02*
X130079800Y-90104800D01*
D11*
%TO.C,U1*%
X141412800Y-90388800D02*
X138462800Y-90388800D01*
X139612800Y-93608800D02*
X141412800Y-93608800D01*
%TO.C,R9*%
X143790400Y-79822021D02*
X143790400Y-79486779D01*
X144550400Y-79822021D02*
X144550400Y-79486779D01*
%TO.C,R1*%
X145617200Y-81913079D02*
X145617200Y-82248321D01*
X144857200Y-81913079D02*
X144857200Y-82248321D01*
%TO.C,C5*%
X143491833Y-95353600D02*
X143784367Y-95353600D01*
X143491833Y-94333600D02*
X143784367Y-94333600D01*
%TO.C,R8*%
X139089676Y-82332300D02*
X139599124Y-82332300D01*
X139089676Y-83377300D02*
X139599124Y-83377300D01*
%TO.C,R3*%
X132489024Y-83986900D02*
X131979576Y-83986900D01*
X132489024Y-82941900D02*
X131979576Y-82941900D01*
%TD*%
M02*
