M48
METRIC,TZ
T1C0.400
T2C0.600
T3C1.000
%
G90
G05
T1
X132690Y-84836
X133731Y-89713
X134087Y-94818
X135712Y-93548
X135763Y-90793
X136855Y-83769
X139090Y-93751
X142392Y-86411
X142443Y-84277
X142850Y-88646
X143485Y-91846
X145440Y-84226
T3
X131674Y-97180
X136754Y-97155
X139294Y-97170
X144374Y-97180
T2
G00X133704Y-76767
M15
G01X133704Y-75467
M16
G05
G00X133704Y-80442
M15
G01X133704Y-79442
M16
G05
G00X142344Y-76767
M15
G01X142344Y-75467
M16
G05
G00X142344Y-80442
M15
G01X142344Y-79442
M16
G05
T0
M30
