%TF.GenerationSoftware,KiCad,Pcbnew,7.0.7*%
%TF.CreationDate,2023-09-27T10:33:14+01:00*%
%TF.ProjectId,tp4650+10a45,74703436-3530-42b3-9130-6134352e6b69,rev?*%
%TF.SameCoordinates,Original*%
%TF.FileFunction,Copper,L1,Top*%
%TF.FilePolarity,Positive*%
%FSLAX46Y46*%
G04 Gerber Fmt 4.6, Leading zero omitted, Abs format (unit mm)*
G04 Created by KiCad (PCBNEW 7.0.7) date 2023-09-27 10:33:14*
%MOMM*%
%LPD*%
G01*
G04 APERTURE LIST*
G04 Aperture macros list*
%AMRoundRect*
0 Rectangle with rounded corners*
0 $1 Rounding radius*
0 $2 $3 $4 $5 $6 $7 $8 $9 X,Y pos of 4 corners*
0 Add a 4 corners polygon primitive as box body*
4,1,4,$2,$3,$4,$5,$6,$7,$8,$9,$2,$3,0*
0 Add four circle primitives for the rounded corners*
1,1,$1+$1,$2,$3*
1,1,$1+$1,$4,$5*
1,1,$1+$1,$6,$7*
1,1,$1+$1,$8,$9*
0 Add four rect primitives between the rounded corners*
20,1,$1+$1,$2,$3,$4,$5,0*
20,1,$1+$1,$4,$5,$6,$7,0*
20,1,$1+$1,$6,$7,$8,$9,0*
20,1,$1+$1,$8,$9,$2,$3,0*%
G04 Aperture macros list end*
%TA.AperFunction,ComponentPad*%
%ADD10R,1.500000X1.500000*%
%TD*%
%TA.AperFunction,SMDPad,CuDef*%
%ADD11RoundRect,0.237500X0.237500X-0.300000X0.237500X0.300000X-0.237500X0.300000X-0.237500X-0.300000X0*%
%TD*%
%TA.AperFunction,SMDPad,CuDef*%
%ADD12RoundRect,0.250000X0.450000X-0.325000X0.450000X0.325000X-0.450000X0.325000X-0.450000X-0.325000X0*%
%TD*%
%TA.AperFunction,SMDPad,CuDef*%
%ADD13RoundRect,0.237500X0.237500X-0.250000X0.237500X0.250000X-0.237500X0.250000X-0.237500X-0.250000X0*%
%TD*%
%TA.AperFunction,SMDPad,CuDef*%
%ADD14RoundRect,0.155000X-0.155000X0.212500X-0.155000X-0.212500X0.155000X-0.212500X0.155000X0.212500X0*%
%TD*%
%TA.AperFunction,SMDPad,CuDef*%
%ADD15RoundRect,0.250000X0.475000X-0.337500X0.475000X0.337500X-0.475000X0.337500X-0.475000X-0.337500X0*%
%TD*%
%TA.AperFunction,SMDPad,CuDef*%
%ADD16RoundRect,0.237500X-0.300000X-0.237500X0.300000X-0.237500X0.300000X0.237500X-0.300000X0.237500X0*%
%TD*%
%TA.AperFunction,ComponentPad*%
%ADD17O,1.300000X2.600000*%
%TD*%
%TA.AperFunction,ComponentPad*%
%ADD18O,1.300000X2.300000*%
%TD*%
%TA.AperFunction,SMDPad,CuDef*%
%ADD19R,0.270000X1.500000*%
%TD*%
%TA.AperFunction,SMDPad,CuDef*%
%ADD20R,0.520000X1.500000*%
%TD*%
%TA.AperFunction,SMDPad,CuDef*%
%ADD21R,2.290000X3.000000*%
%TD*%
%TA.AperFunction,SMDPad,CuDef*%
%ADD22RoundRect,0.150000X-0.825000X-0.150000X0.825000X-0.150000X0.825000X0.150000X-0.825000X0.150000X0*%
%TD*%
%TA.AperFunction,SMDPad,CuDef*%
%ADD23R,0.800000X0.800000*%
%TD*%
%TA.AperFunction,SMDPad,CuDef*%
%ADD24R,1.500000X0.600000*%
%TD*%
%TA.AperFunction,SMDPad,CuDef*%
%ADD25R,1.560000X0.650000*%
%TD*%
%TA.AperFunction,SMDPad,CuDef*%
%ADD26RoundRect,0.160000X0.160000X-0.197500X0.160000X0.197500X-0.160000X0.197500X-0.160000X-0.197500X0*%
%TD*%
%TA.AperFunction,SMDPad,CuDef*%
%ADD27RoundRect,0.160000X-0.160000X0.197500X-0.160000X-0.197500X0.160000X-0.197500X0.160000X0.197500X0*%
%TD*%
%TA.AperFunction,SMDPad,CuDef*%
%ADD28RoundRect,0.237500X-0.250000X-0.237500X0.250000X-0.237500X0.250000X0.237500X-0.250000X0.237500X0*%
%TD*%
%TA.AperFunction,SMDPad,CuDef*%
%ADD29RoundRect,0.237500X0.250000X0.237500X-0.250000X0.237500X-0.250000X-0.237500X0.250000X-0.237500X0*%
%TD*%
%TA.AperFunction,ViaPad*%
%ADD30C,0.800000*%
%TD*%
%TA.AperFunction,Conductor*%
%ADD31C,0.250000*%
%TD*%
G04 APERTURE END LIST*
D10*
%TO.P,+,1,1*%
%TO.N,Net-(U1-V_OUT)*%
X131673600Y-97180400D03*
%TD*%
%TO.P,B+,1,1*%
%TO.N,Net-(SW1A-B)*%
X136753600Y-97155000D03*
%TD*%
%TO.P,-,1,1*%
%TO.N,GND*%
X144373600Y-97180400D03*
%TD*%
%TO.P,B-,1,1*%
%TO.N,GND*%
X139293600Y-97170240D03*
%TD*%
D11*
%TO.P,C2,1*%
%TO.N,Net-(U1-C-)*%
X144653000Y-92759700D03*
%TO.P,C2,2*%
%TO.N,Net-(U1-C+)*%
X144653000Y-91034700D03*
%TD*%
D12*
%TO.P,D1,1,K*%
%TO.N,Net-(D1-K)*%
X144780000Y-77529800D03*
%TO.P,D1,2,A*%
%TO.N,Net-(D1-A)*%
X144780000Y-75479800D03*
%TD*%
D13*
%TO.P,R7,1*%
%TO.N,Net-(P1-SBU1)*%
X131267200Y-77720200D03*
%TO.P,R7,2*%
%TO.N,GND*%
X131267200Y-75895200D03*
%TD*%
D14*
%TO.P,C3,1*%
%TO.N,VIN*%
X143510000Y-82744500D03*
%TO.P,C3,2*%
%TO.N,GND*%
X143510000Y-83879500D03*
%TD*%
D15*
%TO.P,C1,2*%
%TO.N,GND*%
X132537200Y-86258400D03*
%TO.P,C1,1*%
%TO.N,Net-(SW1A-A)*%
X132537200Y-88333400D03*
%TD*%
D16*
%TO.P,C4,1*%
%TO.N,Net-(U1-V_OUT)*%
X137543200Y-94843600D03*
%TO.P,C4,2*%
%TO.N,GND*%
X139268200Y-94843600D03*
%TD*%
D17*
%TO.P,P1,S1,SHIELD*%
%TO.N,GND*%
X133703600Y-76116800D03*
D18*
X133703600Y-79941800D03*
D17*
X142343600Y-76116800D03*
D18*
X142343600Y-79941800D03*
D19*
%TO.P,P1,B8,SBU2*%
%TO.N,Net-(P1-SBU2)*%
X139273600Y-80568800D03*
D20*
%TO.P,P1,A12,GND*%
%TO.N,GND*%
X134923600Y-80568800D03*
%TO.P,P1,A9,VBUS*%
%TO.N,VIN*%
X135673600Y-80568800D03*
D19*
%TO.P,P1,A8,SBU1*%
%TO.N,Net-(P1-SBU1)*%
X136273600Y-80568800D03*
D20*
%TO.P,P1,A4,VBUS*%
%TO.N,VIN*%
X140373600Y-80568800D03*
%TO.P,P1,A1,GND*%
%TO.N,GND*%
X141123600Y-80568800D03*
%TD*%
D21*
%TO.P,U2,9,PP*%
%TO.N,GND*%
X138023600Y-86969600D03*
D22*
%TO.P,U2,8,CE*%
%TO.N,VIN*%
X140498600Y-85064600D03*
%TO.P,U2,7,~{CHRG}*%
%TO.N,Net-(U2-~{CHRG})*%
X140498600Y-86334600D03*
%TO.P,U2,6,~{STDBY}*%
%TO.N,unconnected-(U2-~{STDBY}-Pad6)*%
X140498600Y-87604600D03*
%TO.P,U2,5,BAT*%
%TO.N,Net-(SW1A-A)*%
X140498600Y-88874600D03*
%TO.P,U2,4,VCC*%
%TO.N,VIN*%
X135548600Y-88874600D03*
%TO.P,U2,3,GND*%
%TO.N,GND*%
X135548600Y-87604600D03*
%TO.P,U2,2,PROG*%
%TO.N,Net-(U2-PROG)*%
X135548600Y-86334600D03*
%TO.P,U2,1,TEMP*%
%TO.N,GND*%
X135548600Y-85064600D03*
%TD*%
D23*
%TO.P,SW1,4*%
%TO.N,N/C*%
X130479800Y-95554800D03*
X132549600Y-95554800D03*
X130479800Y-89654800D03*
X132562300Y-89654800D03*
D24*
%TO.P,SW1,3,C*%
%TO.N,GND*%
X133729800Y-93554800D03*
%TO.P,SW1,2,B*%
%TO.N,Net-(SW1A-B)*%
X133729800Y-92554800D03*
%TO.P,SW1,1,A*%
%TO.N,Net-(SW1A-A)*%
X133729800Y-91554800D03*
%TD*%
D25*
%TO.P,U1,6,C+*%
%TO.N,Net-(U1-C+)*%
X141862800Y-91048800D03*
%TO.P,U1,5,V_IN*%
%TO.N,Net-(SW1A-A)*%
X141862800Y-91998800D03*
%TO.P,U1,4,C-*%
%TO.N,Net-(U1-C-)*%
X141862800Y-92948800D03*
%TO.P,U1,3,EN*%
%TO.N,Net-(SW1A-B)*%
X139162800Y-92948800D03*
%TO.P,U1,2,GND*%
%TO.N,GND*%
X139162800Y-91998800D03*
%TO.P,U1,1,V_OUT*%
%TO.N,Net-(U1-V_OUT)*%
X139162800Y-91048800D03*
%TD*%
D26*
%TO.P,R9,1*%
%TO.N,VIN*%
X144170400Y-80251900D03*
%TO.P,R9,2*%
%TO.N,Net-(D1-A)*%
X144170400Y-79056900D03*
%TD*%
D27*
%TO.P,R1,1*%
%TO.N,Net-(D1-K)*%
X145237200Y-81483200D03*
%TO.P,R1,2*%
%TO.N,Net-(U2-~{CHRG})*%
X145237200Y-82678200D03*
%TD*%
D16*
%TO.P,C5,2*%
%TO.N,GND*%
X144500600Y-94843600D03*
%TO.P,C5,1*%
%TO.N,Net-(SW1A-A)*%
X142775600Y-94843600D03*
%TD*%
D28*
%TO.P,R8,1*%
%TO.N,Net-(P1-SBU2)*%
X138431900Y-82854800D03*
%TO.P,R8,2*%
%TO.N,GND*%
X140256900Y-82854800D03*
%TD*%
D29*
%TO.P,R3,1*%
%TO.N,Net-(U2-PROG)*%
X133146800Y-83464400D03*
%TO.P,R3,2*%
%TO.N,GND*%
X131321800Y-83464400D03*
%TD*%
D30*
%TO.N,Net-(SW1A-A)*%
X143484600Y-91846400D03*
X133731000Y-89712800D03*
X142849600Y-88646000D03*
%TO.N,GND*%
X134086600Y-94818200D03*
X136855200Y-83769200D03*
X132689600Y-84836000D03*
X142443200Y-84277200D03*
%TO.N,Net-(SW1A-B)*%
X135712200Y-93548200D03*
%TO.N,Net-(U2-~{CHRG})*%
X145440400Y-84226400D03*
X142392400Y-86410800D03*
%TO.N,Net-(SW1A-B)*%
X139090400Y-93751400D03*
X135763000Y-90792900D03*
%TD*%
D31*
%TO.N,Net-(SW1A-B)*%
X135712200Y-93548200D02*
X135712200Y-92156000D01*
X140157200Y-90170000D02*
X140716000Y-90728800D01*
X135712200Y-92156000D02*
X137698200Y-90170000D01*
X137698200Y-90170000D02*
X140157200Y-90170000D01*
X140716000Y-90728800D02*
X140716000Y-91882000D01*
X140716000Y-91882000D02*
X140832800Y-91998800D01*
X140832800Y-91998800D02*
X141862800Y-91998800D01*
%TO.N,Net-(SW1A-A)*%
X142775600Y-94843600D02*
X142967800Y-94651400D01*
X142967800Y-94651400D02*
X142967800Y-92363200D01*
X142967800Y-92363200D02*
X143484600Y-91846400D01*
X133731000Y-89712800D02*
X133731000Y-91553600D01*
X133731000Y-91553600D02*
X133729800Y-91554800D01*
X143484600Y-91846400D02*
X142312800Y-91846400D01*
X142312800Y-91846400D02*
X142312800Y-91812404D01*
X133731000Y-89712800D02*
X133731000Y-89527200D01*
X140498600Y-88874600D02*
X142621000Y-88874600D01*
X142621000Y-88874600D02*
X142849600Y-88646000D01*
X133731000Y-89527200D02*
X132537200Y-88333400D01*
%TO.N,GND*%
X133729800Y-94461400D02*
X134086600Y-94818200D01*
X133729800Y-93554800D02*
X133729800Y-94461400D01*
%TO.N,Net-(SW1A-B)*%
X133729800Y-92554800D02*
X134397400Y-92554800D01*
X134397400Y-92554800D02*
X135763000Y-91189200D01*
X135763000Y-91189200D02*
X135763000Y-90792900D01*
%TO.N,VIN*%
X137007600Y-82092800D02*
X137007600Y-82713495D01*
X137961705Y-83667600D02*
X140970000Y-83667600D01*
X144170400Y-80251900D02*
X144170400Y-82084100D01*
X135636000Y-81686400D02*
X136194800Y-82245200D01*
X136386800Y-89712800D02*
X135548600Y-88874600D01*
X135673600Y-81648800D02*
X135636000Y-81686400D01*
X137007600Y-82713495D02*
X137961705Y-83667600D01*
X142951200Y-89712800D02*
X136386800Y-89712800D01*
X144170400Y-80467200D02*
X144170400Y-80251900D01*
X140373600Y-79566000D02*
X140373600Y-80568800D01*
X139446000Y-78638400D02*
X140373600Y-79566000D01*
X144119600Y-88544400D02*
X142951200Y-89712800D01*
X136194800Y-82245200D02*
X136855200Y-82245200D01*
X143637000Y-85064600D02*
X144119600Y-85547200D01*
X136855200Y-82245200D02*
X137007600Y-82092800D01*
X140498600Y-85064600D02*
X143637000Y-85064600D01*
X144119600Y-85547200D02*
X144119600Y-88544400D01*
X137363200Y-79654400D02*
X138379200Y-78638400D01*
X137363200Y-81737200D02*
X137363200Y-79654400D01*
X135673600Y-80568800D02*
X135673600Y-81648800D01*
X138379200Y-78638400D02*
X139446000Y-78638400D01*
X144170400Y-82084100D02*
X143510000Y-82744500D01*
X143510000Y-82744500D02*
X142818700Y-82744500D01*
X142818700Y-82744500D02*
X140498600Y-85064600D01*
X137007600Y-82092800D02*
X137363200Y-81737200D01*
X140970000Y-83667600D02*
X144170400Y-80467200D01*
%TO.N,GND*%
X132537200Y-86258400D02*
X132537200Y-84988400D01*
X142343600Y-79941800D02*
X142343600Y-80768100D01*
X144500600Y-94843600D02*
X144500600Y-97043240D01*
X141750600Y-79941800D02*
X141123600Y-80568800D01*
X138023600Y-86969600D02*
X138023600Y-84937600D01*
X144500600Y-97043240D02*
X144373600Y-97170240D01*
X138023600Y-84937600D02*
X136855200Y-83769200D01*
X142840900Y-83879500D02*
X142443200Y-84277200D01*
X142343600Y-80768100D02*
X140256900Y-82854800D01*
X132537200Y-84988400D02*
X132689600Y-84836000D01*
X135548600Y-85064600D02*
X135559800Y-85064600D01*
X143510000Y-83879500D02*
X142840900Y-83879500D01*
X135559800Y-85064600D02*
X136855200Y-83769200D01*
X140192800Y-91998800D02*
X140267800Y-92073800D01*
X134296600Y-79941800D02*
X134923600Y-80568800D01*
X140267800Y-92073800D02*
X140267800Y-93844000D01*
X142343600Y-76116800D02*
X142343600Y-79941800D01*
X139293600Y-94869000D02*
X139268200Y-94843600D01*
X136183600Y-86969600D02*
X138023600Y-86969600D01*
X131488800Y-76116800D02*
X133703600Y-76116800D01*
X142343600Y-79941800D02*
X141750600Y-79941800D01*
X135548600Y-87604600D02*
X136183600Y-86969600D01*
X132689600Y-84836000D02*
X132689600Y-84832200D01*
X140267800Y-93844000D02*
X139268200Y-94843600D01*
X133703600Y-79941800D02*
X134296600Y-79941800D01*
X132689600Y-84832200D02*
X131321800Y-83464400D01*
X133703600Y-76116800D02*
X142343600Y-76116800D01*
X139162800Y-91998800D02*
X140192800Y-91998800D01*
X131267200Y-75895200D02*
X131488800Y-76116800D01*
X139293600Y-97170240D02*
X139293600Y-94869000D01*
%TO.N,Net-(U1-C+)*%
X144638900Y-91048800D02*
X144653000Y-91034700D01*
X141862800Y-91048800D02*
X144638900Y-91048800D01*
%TO.N,Net-(U1-C-)*%
X141862800Y-95263795D02*
X142458605Y-95859600D01*
X143535400Y-95859600D02*
X143638100Y-95756900D01*
X143638100Y-93774600D02*
X144653000Y-92759700D01*
X142458605Y-95859600D02*
X143535400Y-95859600D01*
X143638100Y-95756900D02*
X143638100Y-93774600D01*
X141862800Y-92948800D02*
X141862800Y-95263795D01*
%TO.N,Net-(U1-V_OUT)*%
X136940400Y-94843600D02*
X134603600Y-97180400D01*
X138132800Y-91048800D02*
X137543200Y-91638400D01*
X137543200Y-91638400D02*
X137543200Y-94843600D01*
X139162800Y-91048800D02*
X138132800Y-91048800D01*
X137543200Y-94843600D02*
X136940400Y-94843600D01*
X134603600Y-97180400D02*
X131673600Y-97180400D01*
%TO.N,Net-(D1-A)*%
X143510000Y-78638400D02*
X143928500Y-79056900D01*
X143510000Y-76749800D02*
X143510000Y-78638400D01*
X144780000Y-75479800D02*
X143510000Y-76749800D01*
X143928500Y-79056900D02*
X144170400Y-79056900D01*
%TO.N,Net-(D1-K)*%
X145389600Y-78790800D02*
X145389600Y-81330800D01*
X145389600Y-81330800D02*
X145237200Y-81483200D01*
X144780000Y-77529800D02*
X144780000Y-78181200D01*
X144780000Y-78181200D02*
X145389600Y-78790800D01*
%TO.N,Net-(P1-SBU2)*%
X139273600Y-80568800D02*
X139273600Y-82013100D01*
X139273600Y-82013100D02*
X138431900Y-82854800D01*
%TO.N,Net-(P1-SBU1)*%
X136273600Y-79387206D02*
X134915194Y-78028800D01*
X134915194Y-78028800D02*
X131575800Y-78028800D01*
X131575800Y-78028800D02*
X131267200Y-77720200D01*
X136273600Y-80568800D02*
X136273600Y-79387206D01*
%TO.N,Net-(U2-~{CHRG})*%
X140498600Y-86334600D02*
X142316200Y-86334600D01*
X145440400Y-84226400D02*
X145440400Y-82881400D01*
X145440400Y-82881400D02*
X145237200Y-82678200D01*
X142316200Y-86334600D02*
X142392400Y-86410800D01*
%TO.N,Net-(U2-PROG)*%
X133959600Y-84277200D02*
X133959600Y-85598000D01*
X133146800Y-83464400D02*
X133959600Y-84277200D01*
X134696200Y-86334600D02*
X135548600Y-86334600D01*
X133959600Y-85598000D02*
X134696200Y-86334600D01*
%TO.N,Net-(SW1A-B)*%
X139090400Y-93751400D02*
X139090400Y-93021200D01*
X139090400Y-93021200D02*
X139162800Y-92948800D01*
%TD*%
M02*
