%TF.GenerationSoftware,KiCad,Pcbnew,7.0.7*%
%TF.CreationDate,2023-09-27T10:33:14+01:00*%
%TF.ProjectId,tp4650+10a45,74703436-3530-42b3-9130-6134352e6b69,rev?*%
%TF.SameCoordinates,Original*%
%TF.FileFunction,Soldermask,Top*%
%TF.FilePolarity,Negative*%
%FSLAX46Y46*%
G04 Gerber Fmt 4.6, Leading zero omitted, Abs format (unit mm)*
G04 Created by KiCad (PCBNEW 7.0.7) date 2023-09-27 10:33:14*
%MOMM*%
%LPD*%
G01*
G04 APERTURE LIST*
G04 Aperture macros list*
%AMRoundRect*
0 Rectangle with rounded corners*
0 $1 Rounding radius*
0 $2 $3 $4 $5 $6 $7 $8 $9 X,Y pos of 4 corners*
0 Add a 4 corners polygon primitive as box body*
4,1,4,$2,$3,$4,$5,$6,$7,$8,$9,$2,$3,0*
0 Add four circle primitives for the rounded corners*
1,1,$1+$1,$2,$3*
1,1,$1+$1,$4,$5*
1,1,$1+$1,$6,$7*
1,1,$1+$1,$8,$9*
0 Add four rect primitives between the rounded corners*
20,1,$1+$1,$2,$3,$4,$5,0*
20,1,$1+$1,$4,$5,$6,$7,0*
20,1,$1+$1,$6,$7,$8,$9,0*
20,1,$1+$1,$8,$9,$2,$3,0*%
G04 Aperture macros list end*
%ADD10R,1.500000X1.500000*%
%ADD11RoundRect,0.237500X0.237500X-0.300000X0.237500X0.300000X-0.237500X0.300000X-0.237500X-0.300000X0*%
%ADD12RoundRect,0.250000X0.450000X-0.325000X0.450000X0.325000X-0.450000X0.325000X-0.450000X-0.325000X0*%
%ADD13RoundRect,0.237500X0.237500X-0.250000X0.237500X0.250000X-0.237500X0.250000X-0.237500X-0.250000X0*%
%ADD14RoundRect,0.155000X-0.155000X0.212500X-0.155000X-0.212500X0.155000X-0.212500X0.155000X0.212500X0*%
%ADD15RoundRect,0.250000X0.475000X-0.337500X0.475000X0.337500X-0.475000X0.337500X-0.475000X-0.337500X0*%
%ADD16RoundRect,0.237500X-0.300000X-0.237500X0.300000X-0.237500X0.300000X0.237500X-0.300000X0.237500X0*%
%ADD17O,1.300000X2.600000*%
%ADD18O,1.300000X2.300000*%
%ADD19R,0.270000X1.500000*%
%ADD20R,0.520000X1.500000*%
%ADD21O,0.850000X0.600000*%
%ADD22C,0.600000*%
%ADD23R,2.290000X3.000000*%
%ADD24RoundRect,0.150000X-0.825000X-0.150000X0.825000X-0.150000X0.825000X0.150000X-0.825000X0.150000X0*%
%ADD25R,0.800000X0.800000*%
%ADD26R,1.500000X0.600000*%
%ADD27C,1.000000*%
%ADD28R,1.560000X0.650000*%
%ADD29RoundRect,0.160000X0.160000X-0.197500X0.160000X0.197500X-0.160000X0.197500X-0.160000X-0.197500X0*%
%ADD30RoundRect,0.160000X-0.160000X0.197500X-0.160000X-0.197500X0.160000X-0.197500X0.160000X0.197500X0*%
%ADD31RoundRect,0.237500X-0.250000X-0.237500X0.250000X-0.237500X0.250000X0.237500X-0.250000X0.237500X0*%
%ADD32RoundRect,0.237500X0.250000X0.237500X-0.250000X0.237500X-0.250000X-0.237500X0.250000X-0.237500X0*%
G04 APERTURE END LIST*
D10*
%TO.C,+*%
X131673600Y-97180400D03*
%TD*%
%TO.C,B+*%
X136753600Y-97155000D03*
%TD*%
%TO.C,-*%
X144373600Y-97180400D03*
%TD*%
%TO.C,B-*%
X139293600Y-97170240D03*
%TD*%
D11*
%TO.C,C2*%
X144653000Y-92759700D03*
X144653000Y-91034700D03*
%TD*%
D12*
%TO.C,D1*%
X144780000Y-77529800D03*
X144780000Y-75479800D03*
%TD*%
D13*
%TO.C,R7*%
X131267200Y-77720200D03*
X131267200Y-75895200D03*
%TD*%
D14*
%TO.C,C3*%
X143510000Y-82744500D03*
X143510000Y-83879500D03*
%TD*%
D15*
%TO.C,C1*%
X132537200Y-86258400D03*
X132537200Y-88333400D03*
%TD*%
D16*
%TO.C,C4*%
X137543200Y-94843600D03*
X139268200Y-94843600D03*
%TD*%
D17*
%TO.C,P1*%
X133703600Y-76116800D03*
D18*
X133703600Y-79941800D03*
D17*
X142343600Y-76116800D03*
D18*
X142343600Y-79941800D03*
D19*
X139273600Y-80568800D03*
D20*
X134923600Y-80568800D03*
X135673600Y-80568800D03*
D19*
X136273600Y-80568800D03*
D20*
X140373600Y-80568800D03*
X141123600Y-80568800D03*
D21*
X135023600Y-79216800D03*
D22*
X141023600Y-79216800D03*
%TD*%
D23*
%TO.C,U2*%
X138023600Y-86969600D03*
D24*
X140498600Y-85064600D03*
X140498600Y-86334600D03*
X140498600Y-87604600D03*
X140498600Y-88874600D03*
X135548600Y-88874600D03*
X135548600Y-87604600D03*
X135548600Y-86334600D03*
X135548600Y-85064600D03*
%TD*%
D25*
%TO.C,SW1*%
X130479800Y-95554800D03*
X132549600Y-95554800D03*
X130479800Y-89654800D03*
X132562300Y-89654800D03*
D26*
X133729800Y-93554800D03*
X133729800Y-92554800D03*
X133729800Y-91554800D03*
D27*
X131479800Y-94054800D03*
X131479800Y-91054800D03*
%TD*%
D28*
%TO.C,U1*%
X141862800Y-91048800D03*
X141862800Y-91998800D03*
X141862800Y-92948800D03*
X139162800Y-92948800D03*
X139162800Y-91998800D03*
X139162800Y-91048800D03*
%TD*%
D29*
%TO.C,R9*%
X144170400Y-80251900D03*
X144170400Y-79056900D03*
%TD*%
D30*
%TO.C,R1*%
X145237200Y-81483200D03*
X145237200Y-82678200D03*
%TD*%
D16*
%TO.C,C5*%
X144500600Y-94843600D03*
X142775600Y-94843600D03*
%TD*%
D31*
%TO.C,R8*%
X138431900Y-82854800D03*
X140256900Y-82854800D03*
%TD*%
D32*
%TO.C,R3*%
X133146800Y-83464400D03*
X131321800Y-83464400D03*
%TD*%
M02*
