M48
METRIC,TZ
T1C0.400
T2C0.600
T3C1.500
%
G90
G05
T1
X71170Y-84180
X73640Y-76400
X77910Y-76370
X81520Y-82760
X82430Y-83220
X83423Y-77580
X83915Y-75685
X84040Y-83200
T3
X87050Y-82970
X87055Y-74265
X87055Y-86755
X87060Y-78010
T2
G00X62965Y-76270
M15
G01X61665Y-76270
M16
G05
G00X62965Y-84910
M15
G01X61665Y-84910
M16
G05
G00X66640Y-76270
M15
G01X65640Y-76270
M16
G05
G00X66640Y-84910
M15
G01X65640Y-84910
M16
G05
T0
M30
