%TF.GenerationSoftware,KiCad,Pcbnew,7.0.7*%
%TF.CreationDate,2023-10-14T15:10:54+01:00*%
%TF.ProjectId,battery_protection,62617474-6572-4795-9f70-726f74656374,rev?*%
%TF.SameCoordinates,Original*%
%TF.FileFunction,Drillmap*%
%TF.FilePolarity,Positive*%
%FSLAX45Y45*%
G04 Gerber Fmt 4.5, Leading zero omitted, Abs format (unit mm)*
G04 Created by KiCad (PCBNEW 7.0.7) date 2023-10-14 15:10:54*
%MOMM*%
%LPD*%
G01*
G04 APERTURE LIST*
%ADD10C,0.100000*%
%ADD11C,0.200000*%
%ADD12C,0.040000*%
G04 APERTURE END LIST*
D10*
X14492000Y-8231500D02*
X14993000Y-8231500D01*
X14993000Y-10434500D01*
X14492000Y-10434500D01*
X14492000Y-8231500D01*
D11*
D12*
X14563000Y-9687000D02*
X14603000Y-9727000D01*
X14603000Y-9687000D02*
X14563000Y-9727000D01*
X14694389Y-8983928D02*
X14734389Y-9023928D01*
X14734389Y-8983928D02*
X14694389Y-9023928D01*
X14803000Y-9665000D02*
X14843000Y-9705000D01*
X14843000Y-9665000D02*
X14803000Y-9705000D01*
X14881000Y-10090000D02*
X14921000Y-10130000D01*
X14921000Y-10090000D02*
X14881000Y-10130000D01*
X14914000Y-9250000D02*
X14954000Y-9290000D01*
X14954000Y-9250000D02*
X14914000Y-9290000D01*
D10*
X14666000Y-8344984D02*
G75*
G03*
X14666000Y-8344984I-50000J0D01*
G01*
X14666000Y-10307000D02*
G75*
G03*
X14666000Y-10307000I-50000J0D01*
G01*
X14920000Y-8346000D02*
G75*
G03*
X14920000Y-8346000I-50000J0D01*
G01*
X14920000Y-10308000D02*
G75*
G03*
X14920000Y-10308000I-50000J0D01*
G01*
D11*
X14747777Y-10750984D02*
X14747777Y-10550984D01*
X14747777Y-10550984D02*
X14795396Y-10550984D01*
X14795396Y-10550984D02*
X14823967Y-10560508D01*
X14823967Y-10560508D02*
X14843015Y-10579555D01*
X14843015Y-10579555D02*
X14852539Y-10598603D01*
X14852539Y-10598603D02*
X14862062Y-10636698D01*
X14862062Y-10636698D02*
X14862062Y-10665270D01*
X14862062Y-10665270D02*
X14852539Y-10703365D01*
X14852539Y-10703365D02*
X14843015Y-10722412D01*
X14843015Y-10722412D02*
X14823967Y-10741460D01*
X14823967Y-10741460D02*
X14795396Y-10750984D01*
X14795396Y-10750984D02*
X14747777Y-10750984D01*
X14947777Y-10750984D02*
X14947777Y-10617650D01*
X14947777Y-10655746D02*
X14957301Y-10636698D01*
X14957301Y-10636698D02*
X14966824Y-10627174D01*
X14966824Y-10627174D02*
X14985872Y-10617650D01*
X14985872Y-10617650D02*
X15004920Y-10617650D01*
X15071586Y-10750984D02*
X15071586Y-10617650D01*
X15071586Y-10550984D02*
X15062062Y-10560508D01*
X15062062Y-10560508D02*
X15071586Y-10570031D01*
X15071586Y-10570031D02*
X15081110Y-10560508D01*
X15081110Y-10560508D02*
X15071586Y-10550984D01*
X15071586Y-10550984D02*
X15071586Y-10570031D01*
X15195396Y-10750984D02*
X15176348Y-10741460D01*
X15176348Y-10741460D02*
X15166824Y-10722412D01*
X15166824Y-10722412D02*
X15166824Y-10550984D01*
X15300158Y-10750984D02*
X15281110Y-10741460D01*
X15281110Y-10741460D02*
X15271586Y-10722412D01*
X15271586Y-10722412D02*
X15271586Y-10550984D01*
X15528729Y-10750984D02*
X15528729Y-10550984D01*
X15528729Y-10550984D02*
X15595396Y-10693841D01*
X15595396Y-10693841D02*
X15662062Y-10550984D01*
X15662062Y-10550984D02*
X15662062Y-10750984D01*
X15843015Y-10750984D02*
X15843015Y-10646222D01*
X15843015Y-10646222D02*
X15833491Y-10627174D01*
X15833491Y-10627174D02*
X15814443Y-10617650D01*
X15814443Y-10617650D02*
X15776348Y-10617650D01*
X15776348Y-10617650D02*
X15757301Y-10627174D01*
X15843015Y-10741460D02*
X15823967Y-10750984D01*
X15823967Y-10750984D02*
X15776348Y-10750984D01*
X15776348Y-10750984D02*
X15757301Y-10741460D01*
X15757301Y-10741460D02*
X15747777Y-10722412D01*
X15747777Y-10722412D02*
X15747777Y-10703365D01*
X15747777Y-10703365D02*
X15757301Y-10684317D01*
X15757301Y-10684317D02*
X15776348Y-10674793D01*
X15776348Y-10674793D02*
X15823967Y-10674793D01*
X15823967Y-10674793D02*
X15843015Y-10665270D01*
X15938253Y-10617650D02*
X15938253Y-10817650D01*
X15938253Y-10627174D02*
X15957301Y-10617650D01*
X15957301Y-10617650D02*
X15995396Y-10617650D01*
X15995396Y-10617650D02*
X16014443Y-10627174D01*
X16014443Y-10627174D02*
X16023967Y-10636698D01*
X16023967Y-10636698D02*
X16033491Y-10655746D01*
X16033491Y-10655746D02*
X16033491Y-10712889D01*
X16033491Y-10712889D02*
X16023967Y-10731936D01*
X16023967Y-10731936D02*
X16014443Y-10741460D01*
X16014443Y-10741460D02*
X15995396Y-10750984D01*
X15995396Y-10750984D02*
X15957301Y-10750984D01*
X15957301Y-10750984D02*
X15938253Y-10741460D01*
X16119205Y-10731936D02*
X16128729Y-10741460D01*
X16128729Y-10741460D02*
X16119205Y-10750984D01*
X16119205Y-10750984D02*
X16109682Y-10741460D01*
X16109682Y-10741460D02*
X16119205Y-10731936D01*
X16119205Y-10731936D02*
X16119205Y-10750984D01*
X16119205Y-10627174D02*
X16128729Y-10636698D01*
X16128729Y-10636698D02*
X16119205Y-10646222D01*
X16119205Y-10646222D02*
X16109682Y-10636698D01*
X16109682Y-10636698D02*
X16119205Y-10627174D01*
X16119205Y-10627174D02*
X16119205Y-10646222D01*
D12*
X14447000Y-11059500D02*
X14487000Y-11099500D01*
X14487000Y-11059500D02*
X14447000Y-11099500D01*
D11*
X14785872Y-10970984D02*
X14804920Y-10970984D01*
X14804920Y-10970984D02*
X14823967Y-10980508D01*
X14823967Y-10980508D02*
X14833491Y-10990031D01*
X14833491Y-10990031D02*
X14843015Y-11009079D01*
X14843015Y-11009079D02*
X14852539Y-11047174D01*
X14852539Y-11047174D02*
X14852539Y-11094793D01*
X14852539Y-11094793D02*
X14843015Y-11132889D01*
X14843015Y-11132889D02*
X14833491Y-11151936D01*
X14833491Y-11151936D02*
X14823967Y-11161460D01*
X14823967Y-11161460D02*
X14804920Y-11170984D01*
X14804920Y-11170984D02*
X14785872Y-11170984D01*
X14785872Y-11170984D02*
X14766824Y-11161460D01*
X14766824Y-11161460D02*
X14757301Y-11151936D01*
X14757301Y-11151936D02*
X14747777Y-11132889D01*
X14747777Y-11132889D02*
X14738253Y-11094793D01*
X14738253Y-11094793D02*
X14738253Y-11047174D01*
X14738253Y-11047174D02*
X14747777Y-11009079D01*
X14747777Y-11009079D02*
X14757301Y-10990031D01*
X14757301Y-10990031D02*
X14766824Y-10980508D01*
X14766824Y-10980508D02*
X14785872Y-10970984D01*
X14938253Y-11151936D02*
X14947777Y-11161460D01*
X14947777Y-11161460D02*
X14938253Y-11170984D01*
X14938253Y-11170984D02*
X14928729Y-11161460D01*
X14928729Y-11161460D02*
X14938253Y-11151936D01*
X14938253Y-11151936D02*
X14938253Y-11170984D01*
X15119205Y-11037650D02*
X15119205Y-11170984D01*
X15071586Y-10961460D02*
X15023967Y-11104317D01*
X15023967Y-11104317D02*
X15147777Y-11104317D01*
X15262062Y-10970984D02*
X15281110Y-10970984D01*
X15281110Y-10970984D02*
X15300158Y-10980508D01*
X15300158Y-10980508D02*
X15309682Y-10990031D01*
X15309682Y-10990031D02*
X15319205Y-11009079D01*
X15319205Y-11009079D02*
X15328729Y-11047174D01*
X15328729Y-11047174D02*
X15328729Y-11094793D01*
X15328729Y-11094793D02*
X15319205Y-11132889D01*
X15319205Y-11132889D02*
X15309682Y-11151936D01*
X15309682Y-11151936D02*
X15300158Y-11161460D01*
X15300158Y-11161460D02*
X15281110Y-11170984D01*
X15281110Y-11170984D02*
X15262062Y-11170984D01*
X15262062Y-11170984D02*
X15243015Y-11161460D01*
X15243015Y-11161460D02*
X15233491Y-11151936D01*
X15233491Y-11151936D02*
X15223967Y-11132889D01*
X15223967Y-11132889D02*
X15214443Y-11094793D01*
X15214443Y-11094793D02*
X15214443Y-11047174D01*
X15214443Y-11047174D02*
X15223967Y-11009079D01*
X15223967Y-11009079D02*
X15233491Y-10990031D01*
X15233491Y-10990031D02*
X15243015Y-10980508D01*
X15243015Y-10980508D02*
X15262062Y-10970984D01*
X15452539Y-10970984D02*
X15471586Y-10970984D01*
X15471586Y-10970984D02*
X15490634Y-10980508D01*
X15490634Y-10980508D02*
X15500158Y-10990031D01*
X15500158Y-10990031D02*
X15509682Y-11009079D01*
X15509682Y-11009079D02*
X15519205Y-11047174D01*
X15519205Y-11047174D02*
X15519205Y-11094793D01*
X15519205Y-11094793D02*
X15509682Y-11132889D01*
X15509682Y-11132889D02*
X15500158Y-11151936D01*
X15500158Y-11151936D02*
X15490634Y-11161460D01*
X15490634Y-11161460D02*
X15471586Y-11170984D01*
X15471586Y-11170984D02*
X15452539Y-11170984D01*
X15452539Y-11170984D02*
X15433491Y-11161460D01*
X15433491Y-11161460D02*
X15423967Y-11151936D01*
X15423967Y-11151936D02*
X15414443Y-11132889D01*
X15414443Y-11132889D02*
X15404920Y-11094793D01*
X15404920Y-11094793D02*
X15404920Y-11047174D01*
X15404920Y-11047174D02*
X15414443Y-11009079D01*
X15414443Y-11009079D02*
X15423967Y-10990031D01*
X15423967Y-10990031D02*
X15433491Y-10980508D01*
X15433491Y-10980508D02*
X15452539Y-10970984D01*
X15604920Y-11170984D02*
X15604920Y-11037650D01*
X15604920Y-11056698D02*
X15614443Y-11047174D01*
X15614443Y-11047174D02*
X15633491Y-11037650D01*
X15633491Y-11037650D02*
X15662063Y-11037650D01*
X15662063Y-11037650D02*
X15681110Y-11047174D01*
X15681110Y-11047174D02*
X15690634Y-11066222D01*
X15690634Y-11066222D02*
X15690634Y-11170984D01*
X15690634Y-11066222D02*
X15700158Y-11047174D01*
X15700158Y-11047174D02*
X15719205Y-11037650D01*
X15719205Y-11037650D02*
X15747777Y-11037650D01*
X15747777Y-11037650D02*
X15766824Y-11047174D01*
X15766824Y-11047174D02*
X15776348Y-11066222D01*
X15776348Y-11066222D02*
X15776348Y-11170984D01*
X15871586Y-11170984D02*
X15871586Y-11037650D01*
X15871586Y-11056698D02*
X15881110Y-11047174D01*
X15881110Y-11047174D02*
X15900158Y-11037650D01*
X15900158Y-11037650D02*
X15928729Y-11037650D01*
X15928729Y-11037650D02*
X15947777Y-11047174D01*
X15947777Y-11047174D02*
X15957301Y-11066222D01*
X15957301Y-11066222D02*
X15957301Y-11170984D01*
X15957301Y-11066222D02*
X15966824Y-11047174D01*
X15966824Y-11047174D02*
X15985872Y-11037650D01*
X15985872Y-11037650D02*
X16014443Y-11037650D01*
X16014443Y-11037650D02*
X16033491Y-11047174D01*
X16033491Y-11047174D02*
X16043015Y-11066222D01*
X16043015Y-11066222D02*
X16043015Y-11170984D01*
X16433491Y-10961460D02*
X16262063Y-11218603D01*
X16690634Y-10970984D02*
X16709682Y-10970984D01*
X16709682Y-10970984D02*
X16728729Y-10980508D01*
X16728729Y-10980508D02*
X16738253Y-10990031D01*
X16738253Y-10990031D02*
X16747777Y-11009079D01*
X16747777Y-11009079D02*
X16757301Y-11047174D01*
X16757301Y-11047174D02*
X16757301Y-11094793D01*
X16757301Y-11094793D02*
X16747777Y-11132889D01*
X16747777Y-11132889D02*
X16738253Y-11151936D01*
X16738253Y-11151936D02*
X16728729Y-11161460D01*
X16728729Y-11161460D02*
X16709682Y-11170984D01*
X16709682Y-11170984D02*
X16690634Y-11170984D01*
X16690634Y-11170984D02*
X16671586Y-11161460D01*
X16671586Y-11161460D02*
X16662063Y-11151936D01*
X16662063Y-11151936D02*
X16652539Y-11132889D01*
X16652539Y-11132889D02*
X16643015Y-11094793D01*
X16643015Y-11094793D02*
X16643015Y-11047174D01*
X16643015Y-11047174D02*
X16652539Y-11009079D01*
X16652539Y-11009079D02*
X16662063Y-10990031D01*
X16662063Y-10990031D02*
X16671586Y-10980508D01*
X16671586Y-10980508D02*
X16690634Y-10970984D01*
X16843015Y-11151936D02*
X16852539Y-11161460D01*
X16852539Y-11161460D02*
X16843015Y-11170984D01*
X16843015Y-11170984D02*
X16833491Y-11161460D01*
X16833491Y-11161460D02*
X16843015Y-11151936D01*
X16843015Y-11151936D02*
X16843015Y-11170984D01*
X16976348Y-10970984D02*
X16995396Y-10970984D01*
X16995396Y-10970984D02*
X17014444Y-10980508D01*
X17014444Y-10980508D02*
X17023968Y-10990031D01*
X17023968Y-10990031D02*
X17033491Y-11009079D01*
X17033491Y-11009079D02*
X17043015Y-11047174D01*
X17043015Y-11047174D02*
X17043015Y-11094793D01*
X17043015Y-11094793D02*
X17033491Y-11132889D01*
X17033491Y-11132889D02*
X17023968Y-11151936D01*
X17023968Y-11151936D02*
X17014444Y-11161460D01*
X17014444Y-11161460D02*
X16995396Y-11170984D01*
X16995396Y-11170984D02*
X16976348Y-11170984D01*
X16976348Y-11170984D02*
X16957301Y-11161460D01*
X16957301Y-11161460D02*
X16947777Y-11151936D01*
X16947777Y-11151936D02*
X16938253Y-11132889D01*
X16938253Y-11132889D02*
X16928729Y-11094793D01*
X16928729Y-11094793D02*
X16928729Y-11047174D01*
X16928729Y-11047174D02*
X16938253Y-11009079D01*
X16938253Y-11009079D02*
X16947777Y-10990031D01*
X16947777Y-10990031D02*
X16957301Y-10980508D01*
X16957301Y-10980508D02*
X16976348Y-10970984D01*
X17233491Y-11170984D02*
X17119206Y-11170984D01*
X17176348Y-11170984D02*
X17176348Y-10970984D01*
X17176348Y-10970984D02*
X17157301Y-10999555D01*
X17157301Y-10999555D02*
X17138253Y-11018603D01*
X17138253Y-11018603D02*
X17119206Y-11028127D01*
X17414444Y-10970984D02*
X17319206Y-10970984D01*
X17319206Y-10970984D02*
X17309682Y-11066222D01*
X17309682Y-11066222D02*
X17319206Y-11056698D01*
X17319206Y-11056698D02*
X17338253Y-11047174D01*
X17338253Y-11047174D02*
X17385872Y-11047174D01*
X17385872Y-11047174D02*
X17404920Y-11056698D01*
X17404920Y-11056698D02*
X17414444Y-11066222D01*
X17414444Y-11066222D02*
X17423968Y-11085270D01*
X17423968Y-11085270D02*
X17423968Y-11132889D01*
X17423968Y-11132889D02*
X17414444Y-11151936D01*
X17414444Y-11151936D02*
X17404920Y-11161460D01*
X17404920Y-11161460D02*
X17385872Y-11170984D01*
X17385872Y-11170984D02*
X17338253Y-11170984D01*
X17338253Y-11170984D02*
X17319206Y-11161460D01*
X17319206Y-11161460D02*
X17309682Y-11151936D01*
X17490634Y-10970984D02*
X17623968Y-10970984D01*
X17623968Y-10970984D02*
X17538253Y-11170984D01*
X17690634Y-10970984D02*
X17690634Y-11009079D01*
X17766825Y-10970984D02*
X17766825Y-11009079D01*
X18062063Y-11247174D02*
X18052539Y-11237650D01*
X18052539Y-11237650D02*
X18033491Y-11209079D01*
X18033491Y-11209079D02*
X18023968Y-11190031D01*
X18023968Y-11190031D02*
X18014444Y-11161460D01*
X18014444Y-11161460D02*
X18004920Y-11113841D01*
X18004920Y-11113841D02*
X18004920Y-11075746D01*
X18004920Y-11075746D02*
X18014444Y-11028127D01*
X18014444Y-11028127D02*
X18023968Y-10999555D01*
X18023968Y-10999555D02*
X18033491Y-10980508D01*
X18033491Y-10980508D02*
X18052539Y-10951936D01*
X18052539Y-10951936D02*
X18062063Y-10942412D01*
X18233491Y-10970984D02*
X18138253Y-10970984D01*
X18138253Y-10970984D02*
X18128730Y-11066222D01*
X18128730Y-11066222D02*
X18138253Y-11056698D01*
X18138253Y-11056698D02*
X18157301Y-11047174D01*
X18157301Y-11047174D02*
X18204920Y-11047174D01*
X18204920Y-11047174D02*
X18223968Y-11056698D01*
X18223968Y-11056698D02*
X18233491Y-11066222D01*
X18233491Y-11066222D02*
X18243015Y-11085270D01*
X18243015Y-11085270D02*
X18243015Y-11132889D01*
X18243015Y-11132889D02*
X18233491Y-11151936D01*
X18233491Y-11151936D02*
X18223968Y-11161460D01*
X18223968Y-11161460D02*
X18204920Y-11170984D01*
X18204920Y-11170984D02*
X18157301Y-11170984D01*
X18157301Y-11170984D02*
X18138253Y-11161460D01*
X18138253Y-11161460D02*
X18128730Y-11151936D01*
X18481111Y-11170984D02*
X18481111Y-10970984D01*
X18566825Y-11170984D02*
X18566825Y-11066222D01*
X18566825Y-11066222D02*
X18557301Y-11047174D01*
X18557301Y-11047174D02*
X18538253Y-11037650D01*
X18538253Y-11037650D02*
X18509682Y-11037650D01*
X18509682Y-11037650D02*
X18490634Y-11047174D01*
X18490634Y-11047174D02*
X18481111Y-11056698D01*
X18690634Y-11170984D02*
X18671587Y-11161460D01*
X18671587Y-11161460D02*
X18662063Y-11151936D01*
X18662063Y-11151936D02*
X18652539Y-11132889D01*
X18652539Y-11132889D02*
X18652539Y-11075746D01*
X18652539Y-11075746D02*
X18662063Y-11056698D01*
X18662063Y-11056698D02*
X18671587Y-11047174D01*
X18671587Y-11047174D02*
X18690634Y-11037650D01*
X18690634Y-11037650D02*
X18719206Y-11037650D01*
X18719206Y-11037650D02*
X18738253Y-11047174D01*
X18738253Y-11047174D02*
X18747777Y-11056698D01*
X18747777Y-11056698D02*
X18757301Y-11075746D01*
X18757301Y-11075746D02*
X18757301Y-11132889D01*
X18757301Y-11132889D02*
X18747777Y-11151936D01*
X18747777Y-11151936D02*
X18738253Y-11161460D01*
X18738253Y-11161460D02*
X18719206Y-11170984D01*
X18719206Y-11170984D02*
X18690634Y-11170984D01*
X18871587Y-11170984D02*
X18852539Y-11161460D01*
X18852539Y-11161460D02*
X18843015Y-11142412D01*
X18843015Y-11142412D02*
X18843015Y-10970984D01*
X19023968Y-11161460D02*
X19004920Y-11170984D01*
X19004920Y-11170984D02*
X18966825Y-11170984D01*
X18966825Y-11170984D02*
X18947777Y-11161460D01*
X18947777Y-11161460D02*
X18938253Y-11142412D01*
X18938253Y-11142412D02*
X18938253Y-11066222D01*
X18938253Y-11066222D02*
X18947777Y-11047174D01*
X18947777Y-11047174D02*
X18966825Y-11037650D01*
X18966825Y-11037650D02*
X19004920Y-11037650D01*
X19004920Y-11037650D02*
X19023968Y-11047174D01*
X19023968Y-11047174D02*
X19033492Y-11066222D01*
X19033492Y-11066222D02*
X19033492Y-11085270D01*
X19033492Y-11085270D02*
X18938253Y-11104317D01*
X19109682Y-11161460D02*
X19128730Y-11170984D01*
X19128730Y-11170984D02*
X19166825Y-11170984D01*
X19166825Y-11170984D02*
X19185873Y-11161460D01*
X19185873Y-11161460D02*
X19195396Y-11142412D01*
X19195396Y-11142412D02*
X19195396Y-11132889D01*
X19195396Y-11132889D02*
X19185873Y-11113841D01*
X19185873Y-11113841D02*
X19166825Y-11104317D01*
X19166825Y-11104317D02*
X19138253Y-11104317D01*
X19138253Y-11104317D02*
X19119206Y-11094793D01*
X19119206Y-11094793D02*
X19109682Y-11075746D01*
X19109682Y-11075746D02*
X19109682Y-11066222D01*
X19109682Y-11066222D02*
X19119206Y-11047174D01*
X19119206Y-11047174D02*
X19138253Y-11037650D01*
X19138253Y-11037650D02*
X19166825Y-11037650D01*
X19166825Y-11037650D02*
X19185873Y-11047174D01*
X19262063Y-11247174D02*
X19271587Y-11237650D01*
X19271587Y-11237650D02*
X19290634Y-11209079D01*
X19290634Y-11209079D02*
X19300158Y-11190031D01*
X19300158Y-11190031D02*
X19309682Y-11161460D01*
X19309682Y-11161460D02*
X19319206Y-11113841D01*
X19319206Y-11113841D02*
X19319206Y-11075746D01*
X19319206Y-11075746D02*
X19309682Y-11028127D01*
X19309682Y-11028127D02*
X19300158Y-10999555D01*
X19300158Y-10999555D02*
X19290634Y-10980508D01*
X19290634Y-10980508D02*
X19271587Y-10951936D01*
X19271587Y-10951936D02*
X19262063Y-10942412D01*
D10*
X14487000Y-11343500D02*
G75*
G03*
X14487000Y-11343500I-50000J0D01*
G01*
D11*
X14852539Y-11434984D02*
X14738253Y-11434984D01*
X14795396Y-11434984D02*
X14795396Y-11234984D01*
X14795396Y-11234984D02*
X14776348Y-11263555D01*
X14776348Y-11263555D02*
X14757301Y-11282603D01*
X14757301Y-11282603D02*
X14738253Y-11292127D01*
X14938253Y-11415936D02*
X14947777Y-11425460D01*
X14947777Y-11425460D02*
X14938253Y-11434984D01*
X14938253Y-11434984D02*
X14928729Y-11425460D01*
X14928729Y-11425460D02*
X14938253Y-11415936D01*
X14938253Y-11415936D02*
X14938253Y-11434984D01*
X15071586Y-11234984D02*
X15090634Y-11234984D01*
X15090634Y-11234984D02*
X15109682Y-11244508D01*
X15109682Y-11244508D02*
X15119205Y-11254031D01*
X15119205Y-11254031D02*
X15128729Y-11273079D01*
X15128729Y-11273079D02*
X15138253Y-11311174D01*
X15138253Y-11311174D02*
X15138253Y-11358793D01*
X15138253Y-11358793D02*
X15128729Y-11396888D01*
X15128729Y-11396888D02*
X15119205Y-11415936D01*
X15119205Y-11415936D02*
X15109682Y-11425460D01*
X15109682Y-11425460D02*
X15090634Y-11434984D01*
X15090634Y-11434984D02*
X15071586Y-11434984D01*
X15071586Y-11434984D02*
X15052539Y-11425460D01*
X15052539Y-11425460D02*
X15043015Y-11415936D01*
X15043015Y-11415936D02*
X15033491Y-11396888D01*
X15033491Y-11396888D02*
X15023967Y-11358793D01*
X15023967Y-11358793D02*
X15023967Y-11311174D01*
X15023967Y-11311174D02*
X15033491Y-11273079D01*
X15033491Y-11273079D02*
X15043015Y-11254031D01*
X15043015Y-11254031D02*
X15052539Y-11244508D01*
X15052539Y-11244508D02*
X15071586Y-11234984D01*
X15262062Y-11234984D02*
X15281110Y-11234984D01*
X15281110Y-11234984D02*
X15300158Y-11244508D01*
X15300158Y-11244508D02*
X15309682Y-11254031D01*
X15309682Y-11254031D02*
X15319205Y-11273079D01*
X15319205Y-11273079D02*
X15328729Y-11311174D01*
X15328729Y-11311174D02*
X15328729Y-11358793D01*
X15328729Y-11358793D02*
X15319205Y-11396888D01*
X15319205Y-11396888D02*
X15309682Y-11415936D01*
X15309682Y-11415936D02*
X15300158Y-11425460D01*
X15300158Y-11425460D02*
X15281110Y-11434984D01*
X15281110Y-11434984D02*
X15262062Y-11434984D01*
X15262062Y-11434984D02*
X15243015Y-11425460D01*
X15243015Y-11425460D02*
X15233491Y-11415936D01*
X15233491Y-11415936D02*
X15223967Y-11396888D01*
X15223967Y-11396888D02*
X15214443Y-11358793D01*
X15214443Y-11358793D02*
X15214443Y-11311174D01*
X15214443Y-11311174D02*
X15223967Y-11273079D01*
X15223967Y-11273079D02*
X15233491Y-11254031D01*
X15233491Y-11254031D02*
X15243015Y-11244508D01*
X15243015Y-11244508D02*
X15262062Y-11234984D01*
X15452539Y-11234984D02*
X15471586Y-11234984D01*
X15471586Y-11234984D02*
X15490634Y-11244508D01*
X15490634Y-11244508D02*
X15500158Y-11254031D01*
X15500158Y-11254031D02*
X15509682Y-11273079D01*
X15509682Y-11273079D02*
X15519205Y-11311174D01*
X15519205Y-11311174D02*
X15519205Y-11358793D01*
X15519205Y-11358793D02*
X15509682Y-11396888D01*
X15509682Y-11396888D02*
X15500158Y-11415936D01*
X15500158Y-11415936D02*
X15490634Y-11425460D01*
X15490634Y-11425460D02*
X15471586Y-11434984D01*
X15471586Y-11434984D02*
X15452539Y-11434984D01*
X15452539Y-11434984D02*
X15433491Y-11425460D01*
X15433491Y-11425460D02*
X15423967Y-11415936D01*
X15423967Y-11415936D02*
X15414443Y-11396888D01*
X15414443Y-11396888D02*
X15404920Y-11358793D01*
X15404920Y-11358793D02*
X15404920Y-11311174D01*
X15404920Y-11311174D02*
X15414443Y-11273079D01*
X15414443Y-11273079D02*
X15423967Y-11254031D01*
X15423967Y-11254031D02*
X15433491Y-11244508D01*
X15433491Y-11244508D02*
X15452539Y-11234984D01*
X15604920Y-11434984D02*
X15604920Y-11301650D01*
X15604920Y-11320698D02*
X15614443Y-11311174D01*
X15614443Y-11311174D02*
X15633491Y-11301650D01*
X15633491Y-11301650D02*
X15662063Y-11301650D01*
X15662063Y-11301650D02*
X15681110Y-11311174D01*
X15681110Y-11311174D02*
X15690634Y-11330222D01*
X15690634Y-11330222D02*
X15690634Y-11434984D01*
X15690634Y-11330222D02*
X15700158Y-11311174D01*
X15700158Y-11311174D02*
X15719205Y-11301650D01*
X15719205Y-11301650D02*
X15747777Y-11301650D01*
X15747777Y-11301650D02*
X15766824Y-11311174D01*
X15766824Y-11311174D02*
X15776348Y-11330222D01*
X15776348Y-11330222D02*
X15776348Y-11434984D01*
X15871586Y-11434984D02*
X15871586Y-11301650D01*
X15871586Y-11320698D02*
X15881110Y-11311174D01*
X15881110Y-11311174D02*
X15900158Y-11301650D01*
X15900158Y-11301650D02*
X15928729Y-11301650D01*
X15928729Y-11301650D02*
X15947777Y-11311174D01*
X15947777Y-11311174D02*
X15957301Y-11330222D01*
X15957301Y-11330222D02*
X15957301Y-11434984D01*
X15957301Y-11330222D02*
X15966824Y-11311174D01*
X15966824Y-11311174D02*
X15985872Y-11301650D01*
X15985872Y-11301650D02*
X16014443Y-11301650D01*
X16014443Y-11301650D02*
X16033491Y-11311174D01*
X16033491Y-11311174D02*
X16043015Y-11330222D01*
X16043015Y-11330222D02*
X16043015Y-11434984D01*
X16433491Y-11225460D02*
X16262063Y-11482603D01*
X16690634Y-11234984D02*
X16709682Y-11234984D01*
X16709682Y-11234984D02*
X16728729Y-11244508D01*
X16728729Y-11244508D02*
X16738253Y-11254031D01*
X16738253Y-11254031D02*
X16747777Y-11273079D01*
X16747777Y-11273079D02*
X16757301Y-11311174D01*
X16757301Y-11311174D02*
X16757301Y-11358793D01*
X16757301Y-11358793D02*
X16747777Y-11396888D01*
X16747777Y-11396888D02*
X16738253Y-11415936D01*
X16738253Y-11415936D02*
X16728729Y-11425460D01*
X16728729Y-11425460D02*
X16709682Y-11434984D01*
X16709682Y-11434984D02*
X16690634Y-11434984D01*
X16690634Y-11434984D02*
X16671586Y-11425460D01*
X16671586Y-11425460D02*
X16662063Y-11415936D01*
X16662063Y-11415936D02*
X16652539Y-11396888D01*
X16652539Y-11396888D02*
X16643015Y-11358793D01*
X16643015Y-11358793D02*
X16643015Y-11311174D01*
X16643015Y-11311174D02*
X16652539Y-11273079D01*
X16652539Y-11273079D02*
X16662063Y-11254031D01*
X16662063Y-11254031D02*
X16671586Y-11244508D01*
X16671586Y-11244508D02*
X16690634Y-11234984D01*
X16843015Y-11415936D02*
X16852539Y-11425460D01*
X16852539Y-11425460D02*
X16843015Y-11434984D01*
X16843015Y-11434984D02*
X16833491Y-11425460D01*
X16833491Y-11425460D02*
X16843015Y-11415936D01*
X16843015Y-11415936D02*
X16843015Y-11434984D01*
X16976348Y-11234984D02*
X16995396Y-11234984D01*
X16995396Y-11234984D02*
X17014444Y-11244508D01*
X17014444Y-11244508D02*
X17023968Y-11254031D01*
X17023968Y-11254031D02*
X17033491Y-11273079D01*
X17033491Y-11273079D02*
X17043015Y-11311174D01*
X17043015Y-11311174D02*
X17043015Y-11358793D01*
X17043015Y-11358793D02*
X17033491Y-11396888D01*
X17033491Y-11396888D02*
X17023968Y-11415936D01*
X17023968Y-11415936D02*
X17014444Y-11425460D01*
X17014444Y-11425460D02*
X16995396Y-11434984D01*
X16995396Y-11434984D02*
X16976348Y-11434984D01*
X16976348Y-11434984D02*
X16957301Y-11425460D01*
X16957301Y-11425460D02*
X16947777Y-11415936D01*
X16947777Y-11415936D02*
X16938253Y-11396888D01*
X16938253Y-11396888D02*
X16928729Y-11358793D01*
X16928729Y-11358793D02*
X16928729Y-11311174D01*
X16928729Y-11311174D02*
X16938253Y-11273079D01*
X16938253Y-11273079D02*
X16947777Y-11254031D01*
X16947777Y-11254031D02*
X16957301Y-11244508D01*
X16957301Y-11244508D02*
X16976348Y-11234984D01*
X17109682Y-11234984D02*
X17233491Y-11234984D01*
X17233491Y-11234984D02*
X17166825Y-11311174D01*
X17166825Y-11311174D02*
X17195396Y-11311174D01*
X17195396Y-11311174D02*
X17214444Y-11320698D01*
X17214444Y-11320698D02*
X17223968Y-11330222D01*
X17223968Y-11330222D02*
X17233491Y-11349269D01*
X17233491Y-11349269D02*
X17233491Y-11396888D01*
X17233491Y-11396888D02*
X17223968Y-11415936D01*
X17223968Y-11415936D02*
X17214444Y-11425460D01*
X17214444Y-11425460D02*
X17195396Y-11434984D01*
X17195396Y-11434984D02*
X17138253Y-11434984D01*
X17138253Y-11434984D02*
X17119206Y-11425460D01*
X17119206Y-11425460D02*
X17109682Y-11415936D01*
X17328729Y-11434984D02*
X17366825Y-11434984D01*
X17366825Y-11434984D02*
X17385872Y-11425460D01*
X17385872Y-11425460D02*
X17395396Y-11415936D01*
X17395396Y-11415936D02*
X17414444Y-11387365D01*
X17414444Y-11387365D02*
X17423968Y-11349269D01*
X17423968Y-11349269D02*
X17423968Y-11273079D01*
X17423968Y-11273079D02*
X17414444Y-11254031D01*
X17414444Y-11254031D02*
X17404920Y-11244508D01*
X17404920Y-11244508D02*
X17385872Y-11234984D01*
X17385872Y-11234984D02*
X17347777Y-11234984D01*
X17347777Y-11234984D02*
X17328729Y-11244508D01*
X17328729Y-11244508D02*
X17319206Y-11254031D01*
X17319206Y-11254031D02*
X17309682Y-11273079D01*
X17309682Y-11273079D02*
X17309682Y-11320698D01*
X17309682Y-11320698D02*
X17319206Y-11339746D01*
X17319206Y-11339746D02*
X17328729Y-11349269D01*
X17328729Y-11349269D02*
X17347777Y-11358793D01*
X17347777Y-11358793D02*
X17385872Y-11358793D01*
X17385872Y-11358793D02*
X17404920Y-11349269D01*
X17404920Y-11349269D02*
X17414444Y-11339746D01*
X17414444Y-11339746D02*
X17423968Y-11320698D01*
X17595396Y-11301650D02*
X17595396Y-11434984D01*
X17547777Y-11225460D02*
X17500158Y-11368317D01*
X17500158Y-11368317D02*
X17623968Y-11368317D01*
X17690634Y-11234984D02*
X17690634Y-11273079D01*
X17766825Y-11234984D02*
X17766825Y-11273079D01*
X18062063Y-11511174D02*
X18052539Y-11501650D01*
X18052539Y-11501650D02*
X18033491Y-11473079D01*
X18033491Y-11473079D02*
X18023968Y-11454031D01*
X18023968Y-11454031D02*
X18014444Y-11425460D01*
X18014444Y-11425460D02*
X18004920Y-11377841D01*
X18004920Y-11377841D02*
X18004920Y-11339746D01*
X18004920Y-11339746D02*
X18014444Y-11292127D01*
X18014444Y-11292127D02*
X18023968Y-11263555D01*
X18023968Y-11263555D02*
X18033491Y-11244508D01*
X18033491Y-11244508D02*
X18052539Y-11215936D01*
X18052539Y-11215936D02*
X18062063Y-11206412D01*
X18223968Y-11301650D02*
X18223968Y-11434984D01*
X18176349Y-11225460D02*
X18128730Y-11368317D01*
X18128730Y-11368317D02*
X18252539Y-11368317D01*
X18481111Y-11434984D02*
X18481111Y-11234984D01*
X18566825Y-11434984D02*
X18566825Y-11330222D01*
X18566825Y-11330222D02*
X18557301Y-11311174D01*
X18557301Y-11311174D02*
X18538253Y-11301650D01*
X18538253Y-11301650D02*
X18509682Y-11301650D01*
X18509682Y-11301650D02*
X18490634Y-11311174D01*
X18490634Y-11311174D02*
X18481111Y-11320698D01*
X18690634Y-11434984D02*
X18671587Y-11425460D01*
X18671587Y-11425460D02*
X18662063Y-11415936D01*
X18662063Y-11415936D02*
X18652539Y-11396888D01*
X18652539Y-11396888D02*
X18652539Y-11339746D01*
X18652539Y-11339746D02*
X18662063Y-11320698D01*
X18662063Y-11320698D02*
X18671587Y-11311174D01*
X18671587Y-11311174D02*
X18690634Y-11301650D01*
X18690634Y-11301650D02*
X18719206Y-11301650D01*
X18719206Y-11301650D02*
X18738253Y-11311174D01*
X18738253Y-11311174D02*
X18747777Y-11320698D01*
X18747777Y-11320698D02*
X18757301Y-11339746D01*
X18757301Y-11339746D02*
X18757301Y-11396888D01*
X18757301Y-11396888D02*
X18747777Y-11415936D01*
X18747777Y-11415936D02*
X18738253Y-11425460D01*
X18738253Y-11425460D02*
X18719206Y-11434984D01*
X18719206Y-11434984D02*
X18690634Y-11434984D01*
X18871587Y-11434984D02*
X18852539Y-11425460D01*
X18852539Y-11425460D02*
X18843015Y-11406412D01*
X18843015Y-11406412D02*
X18843015Y-11234984D01*
X19023968Y-11425460D02*
X19004920Y-11434984D01*
X19004920Y-11434984D02*
X18966825Y-11434984D01*
X18966825Y-11434984D02*
X18947777Y-11425460D01*
X18947777Y-11425460D02*
X18938253Y-11406412D01*
X18938253Y-11406412D02*
X18938253Y-11330222D01*
X18938253Y-11330222D02*
X18947777Y-11311174D01*
X18947777Y-11311174D02*
X18966825Y-11301650D01*
X18966825Y-11301650D02*
X19004920Y-11301650D01*
X19004920Y-11301650D02*
X19023968Y-11311174D01*
X19023968Y-11311174D02*
X19033492Y-11330222D01*
X19033492Y-11330222D02*
X19033492Y-11349269D01*
X19033492Y-11349269D02*
X18938253Y-11368317D01*
X19109682Y-11425460D02*
X19128730Y-11434984D01*
X19128730Y-11434984D02*
X19166825Y-11434984D01*
X19166825Y-11434984D02*
X19185873Y-11425460D01*
X19185873Y-11425460D02*
X19195396Y-11406412D01*
X19195396Y-11406412D02*
X19195396Y-11396888D01*
X19195396Y-11396888D02*
X19185873Y-11377841D01*
X19185873Y-11377841D02*
X19166825Y-11368317D01*
X19166825Y-11368317D02*
X19138253Y-11368317D01*
X19138253Y-11368317D02*
X19119206Y-11358793D01*
X19119206Y-11358793D02*
X19109682Y-11339746D01*
X19109682Y-11339746D02*
X19109682Y-11330222D01*
X19109682Y-11330222D02*
X19119206Y-11311174D01*
X19119206Y-11311174D02*
X19138253Y-11301650D01*
X19138253Y-11301650D02*
X19166825Y-11301650D01*
X19166825Y-11301650D02*
X19185873Y-11311174D01*
X19262063Y-11511174D02*
X19271587Y-11501650D01*
X19271587Y-11501650D02*
X19290634Y-11473079D01*
X19290634Y-11473079D02*
X19300158Y-11454031D01*
X19300158Y-11454031D02*
X19309682Y-11425460D01*
X19309682Y-11425460D02*
X19319206Y-11377841D01*
X19319206Y-11377841D02*
X19319206Y-11339746D01*
X19319206Y-11339746D02*
X19309682Y-11292127D01*
X19309682Y-11292127D02*
X19300158Y-11263555D01*
X19300158Y-11263555D02*
X19290634Y-11244508D01*
X19290634Y-11244508D02*
X19271587Y-11215936D01*
X19271587Y-11215936D02*
X19262063Y-11206412D01*
M02*
