%TF.GenerationSoftware,KiCad,Pcbnew,7.0.7*%
%TF.CreationDate,2023-10-14T15:10:54+01:00*%
%TF.ProjectId,battery_protection,62617474-6572-4795-9f70-726f74656374,rev?*%
%TF.SameCoordinates,Original*%
%TF.FileFunction,Drillmap*%
%TF.FilePolarity,Positive*%
%FSLAX45Y45*%
G04 Gerber Fmt 4.5, Leading zero omitted, Abs format (unit mm)*
G04 Created by KiCad (PCBNEW 7.0.7) date 2023-10-14 15:10:54*
%MOMM*%
%LPD*%
G01*
G04 APERTURE LIST*
%ADD10C,0.100000*%
%ADD11C,0.200000*%
G04 APERTURE END LIST*
D10*
X14492000Y-8231500D02*
X14993000Y-8231500D01*
X14993000Y-10434500D01*
X14492000Y-10434500D01*
X14492000Y-8231500D01*
D11*
X14747777Y-10750984D02*
X14747777Y-10550984D01*
X14747777Y-10550984D02*
X14795396Y-10550984D01*
X14795396Y-10550984D02*
X14823967Y-10560508D01*
X14823967Y-10560508D02*
X14843015Y-10579555D01*
X14843015Y-10579555D02*
X14852539Y-10598603D01*
X14852539Y-10598603D02*
X14862062Y-10636698D01*
X14862062Y-10636698D02*
X14862062Y-10665270D01*
X14862062Y-10665270D02*
X14852539Y-10703365D01*
X14852539Y-10703365D02*
X14843015Y-10722412D01*
X14843015Y-10722412D02*
X14823967Y-10741460D01*
X14823967Y-10741460D02*
X14795396Y-10750984D01*
X14795396Y-10750984D02*
X14747777Y-10750984D01*
X14947777Y-10750984D02*
X14947777Y-10617650D01*
X14947777Y-10655746D02*
X14957301Y-10636698D01*
X14957301Y-10636698D02*
X14966824Y-10627174D01*
X14966824Y-10627174D02*
X14985872Y-10617650D01*
X14985872Y-10617650D02*
X15004920Y-10617650D01*
X15071586Y-10750984D02*
X15071586Y-10617650D01*
X15071586Y-10550984D02*
X15062062Y-10560508D01*
X15062062Y-10560508D02*
X15071586Y-10570031D01*
X15071586Y-10570031D02*
X15081110Y-10560508D01*
X15081110Y-10560508D02*
X15071586Y-10550984D01*
X15071586Y-10550984D02*
X15071586Y-10570031D01*
X15195396Y-10750984D02*
X15176348Y-10741460D01*
X15176348Y-10741460D02*
X15166824Y-10722412D01*
X15166824Y-10722412D02*
X15166824Y-10550984D01*
X15300158Y-10750984D02*
X15281110Y-10741460D01*
X15281110Y-10741460D02*
X15271586Y-10722412D01*
X15271586Y-10722412D02*
X15271586Y-10550984D01*
X15528729Y-10750984D02*
X15528729Y-10550984D01*
X15528729Y-10550984D02*
X15595396Y-10693841D01*
X15595396Y-10693841D02*
X15662062Y-10550984D01*
X15662062Y-10550984D02*
X15662062Y-10750984D01*
X15843015Y-10750984D02*
X15843015Y-10646222D01*
X15843015Y-10646222D02*
X15833491Y-10627174D01*
X15833491Y-10627174D02*
X15814443Y-10617650D01*
X15814443Y-10617650D02*
X15776348Y-10617650D01*
X15776348Y-10617650D02*
X15757301Y-10627174D01*
X15843015Y-10741460D02*
X15823967Y-10750984D01*
X15823967Y-10750984D02*
X15776348Y-10750984D01*
X15776348Y-10750984D02*
X15757301Y-10741460D01*
X15757301Y-10741460D02*
X15747777Y-10722412D01*
X15747777Y-10722412D02*
X15747777Y-10703365D01*
X15747777Y-10703365D02*
X15757301Y-10684317D01*
X15757301Y-10684317D02*
X15776348Y-10674793D01*
X15776348Y-10674793D02*
X15823967Y-10674793D01*
X15823967Y-10674793D02*
X15843015Y-10665270D01*
X15938253Y-10617650D02*
X15938253Y-10817650D01*
X15938253Y-10627174D02*
X15957301Y-10617650D01*
X15957301Y-10617650D02*
X15995396Y-10617650D01*
X15995396Y-10617650D02*
X16014443Y-10627174D01*
X16014443Y-10627174D02*
X16023967Y-10636698D01*
X16023967Y-10636698D02*
X16033491Y-10655746D01*
X16033491Y-10655746D02*
X16033491Y-10712889D01*
X16033491Y-10712889D02*
X16023967Y-10731936D01*
X16023967Y-10731936D02*
X16014443Y-10741460D01*
X16014443Y-10741460D02*
X15995396Y-10750984D01*
X15995396Y-10750984D02*
X15957301Y-10750984D01*
X15957301Y-10750984D02*
X15938253Y-10741460D01*
X16119205Y-10731936D02*
X16128729Y-10741460D01*
X16128729Y-10741460D02*
X16119205Y-10750984D01*
X16119205Y-10750984D02*
X16109682Y-10741460D01*
X16109682Y-10741460D02*
X16119205Y-10731936D01*
X16119205Y-10731936D02*
X16119205Y-10750984D01*
X16119205Y-10627174D02*
X16128729Y-10636698D01*
X16128729Y-10636698D02*
X16119205Y-10646222D01*
X16119205Y-10646222D02*
X16109682Y-10636698D01*
X16109682Y-10636698D02*
X16119205Y-10627174D01*
X16119205Y-10627174D02*
X16119205Y-10646222D01*
M02*
